<svg width="16" height="16" viewBox="0 0 16 16" fill="none" xmlns="http://www.w3.org/2000/svg">
<path d="M0.439066 0.439982C0.720317 0.159081 1.10157 0.00130177 1.49907 0.00130177C1.89657 0.00130177 2.27782 0.159081 2.55907 0.439982L7.99907 5.87798L13.4391 0.439982C13.5783 0.300781 13.7435 0.19036 13.9254 0.115025C14.1073 0.0396899 14.3022 0.000915531 14.4991 0.000915527C14.6959 0.000915523 14.8909 0.0396899 15.0727 0.115025C15.2546 0.19036 15.4199 0.300781 15.5591 0.439982C15.6983 0.579183 15.8087 0.744439 15.884 0.926314C15.9594 1.10819 15.9981 1.30312 15.9981 1.49998C15.9981 1.69684 15.9594 1.89177 15.884 2.07365C15.8087 2.25553 15.6983 2.42078 15.5591 2.55998L10.1211 7.99998L15.5591 13.44C15.8402 13.7211 15.9981 14.1024 15.9981 14.5C15.9981 14.8976 15.8402 15.2789 15.5591 15.56C15.2779 15.8411 14.8966 15.999 14.4991 15.999C14.1015 15.999 13.7202 15.8411 13.4391 15.56L7.99907 10.122L2.55907 15.56C2.27794 15.8411 1.89664 15.999 1.49907 15.999C1.10149 15.999 0.720196 15.8411 0.439066 15.56C0.157937 15.2789 0 14.8976 0 14.5C0 14.1024 0.157937 13.7211 0.439066 13.44L5.87707 7.99998L0.439066 2.55998C0.158165 2.27873 0.000386238 1.89748 0.000386238 1.49998C0.000386238 1.10248 0.158165 0.721233 0.439066 0.439982Z" fill="#6A6A6A"/>
</svg>
