<svg width="335" height="140" viewBox="0 0 335 140" fill="none" xmlns="http://www.w3.org/2000/svg">
<rect width="335" height="140" rx="10" fill="#FFEDED"/>
<path d="M31.7637 49.1699H29.7949V37.6914H31.7637V49.1699ZM32.2031 53.248H21.252V48.0098H23.2207V51.666H32.2031V53.248ZM23.0977 38.7285C23.8945 38.7285 24.6182 38.9014 25.2686 39.2471C25.9189 39.5869 26.4316 40.0586 26.8066 40.6621C27.1816 41.2656 27.3691 41.9453 27.3691 42.7012C27.3691 43.4688 27.1816 44.1572 26.8066 44.7666C26.4316 45.3701 25.9189 45.8418 25.2686 46.1816C24.6182 46.5215 23.8945 46.6914 23.0977 46.6914C22.2949 46.6914 21.5654 46.5215 20.9092 46.1816C20.2588 45.8418 19.7461 45.3701 19.3711 44.7666C18.9961 44.1572 18.8086 43.4688 18.8086 42.7012C18.8086 41.9453 18.9961 41.2656 19.3711 40.6621C19.7461 40.0586 20.2588 39.5869 20.9092 39.2471C21.5654 38.9014 22.2949 38.7285 23.0977 38.7285ZM23.0977 40.4336C22.6465 40.4336 22.2393 40.5273 21.876 40.7148C21.5127 40.9023 21.2285 41.1689 21.0234 41.5146C20.8184 41.8604 20.7188 42.2559 20.7246 42.7012C20.7188 43.1582 20.8184 43.5596 21.0234 43.9053C21.2285 44.251 21.5127 44.5176 21.876 44.7051C22.2393 44.8926 22.6465 44.9863 23.0977 44.9863C23.5371 44.9863 23.9355 44.8926 24.293 44.7051C24.6504 44.5176 24.9316 44.251 25.1367 43.9053C25.3477 43.5596 25.4531 43.1582 25.4531 42.7012C25.4531 42.2559 25.3477 41.8604 25.1367 41.5146C24.9316 41.1689 24.6504 40.9023 24.293 40.7148C23.9355 40.5273 23.5371 40.4336 23.0977 40.4336ZM47.4173 40.9609H34.4447V39.3789H39.9818V37.6387H41.9154V39.3789H47.4173V40.9609ZM48.2435 49.5391H41.9154V53.582H39.9818V49.5391H33.724V47.9395H48.2435V49.5391ZM40.9486 41.6816C42.0677 41.6816 43.0287 41.7871 43.8314 41.998C44.64 42.2031 45.2582 42.5078 45.6859 42.9121C46.1136 43.3105 46.3275 43.7969 46.3275 44.3711C46.3275 44.9453 46.1136 45.4346 45.6859 45.8389C45.2582 46.2373 44.64 46.542 43.8314 46.7529C43.0287 46.958 42.0677 47.0605 40.9486 47.0605C39.8295 47.0605 38.8656 46.958 38.057 46.7529C37.2543 46.542 36.639 46.2373 36.2113 45.8389C35.7836 45.4346 35.5697 44.9453 35.5697 44.3711C35.5697 43.7969 35.7836 43.3105 36.2113 42.9121C36.639 42.5078 37.2543 42.2031 38.057 41.998C38.8656 41.7871 39.8295 41.6816 40.9486 41.6816ZM40.9486 43.1406C39.847 43.1406 39.0121 43.2461 38.4437 43.457C37.8812 43.6621 37.6029 43.9668 37.6088 44.3711C37.6029 44.7754 37.8812 45.083 38.4437 45.2939C39.0121 45.499 39.847 45.6016 40.9486 45.6016C42.0502 45.6016 42.8851 45.499 43.4535 45.2939C44.0218 45.083 44.306 44.7754 44.306 44.3711C44.306 43.9668 44.0218 43.6621 43.4535 43.457C42.8851 43.2461 42.0502 43.1406 40.9486 43.1406ZM63.4226 46.3574H48.903V44.8809H63.4226V46.3574ZM61.6648 50.9277H52.5593V52.0352H62.1394V53.3887H50.6081V49.6621H59.7312V48.6777H50.5905V47.3066H61.6648V50.9277ZM61.6296 41.6113H52.6823V42.6484H61.9109V43.9844H50.7488V40.3457H59.6784V39.3789H50.696V38.0254H61.6296V41.6113ZM81.2475 53.582H79.2788V37.6738H81.2475V53.582ZM72.687 38.834C73.4838 38.834 74.1928 39.0654 74.8139 39.5283C75.4409 39.9854 75.933 40.6387 76.2905 41.4883C76.6479 42.332 76.8295 43.3164 76.8354 44.4414C76.8295 45.5723 76.6479 46.5625 76.2905 47.4121C75.9389 48.2617 75.4496 48.918 74.8227 49.3809C74.1957 49.8379 73.4838 50.0664 72.687 50.0664C71.8842 50.0664 71.1694 49.8379 70.5424 49.3809C69.9155 48.918 69.4233 48.2617 69.0659 47.4121C68.7143 46.5625 68.5385 45.5723 68.5385 44.4414C68.5385 43.3164 68.7143 42.332 69.0659 41.4883C69.4233 40.6387 69.9155 39.9854 70.5424 39.5283C71.1694 39.0654 71.8842 38.834 72.687 38.834ZM72.687 40.5918C72.2358 40.5918 71.8373 40.7441 71.4916 41.0488C71.1518 41.3535 70.8881 41.7959 70.7006 42.376C70.5131 42.9561 70.4194 43.6445 70.4194 44.4414C70.4194 45.2441 70.5131 45.9355 70.7006 46.5156C70.8881 47.0957 71.1518 47.541 71.4916 47.8516C71.8373 48.1562 72.2358 48.3086 72.687 48.3086C73.1323 48.3086 73.5248 48.1562 73.8647 47.8516C74.2045 47.541 74.4682 47.0957 74.6557 46.5156C74.8432 45.9355 74.937 45.2441 74.937 44.4414C74.937 43.6445 74.8432 42.959 74.6557 42.3848C74.4682 41.8047 74.2045 41.3623 73.8647 41.0576C73.5248 40.7471 73.1323 40.5918 72.687 40.5918ZM97.7098 46.8848H83.2254V45.3203H86.6004V43.3076C85.9969 43.0498 85.5311 42.7217 85.2029 42.3232C84.8807 41.9248 84.7195 41.4707 84.7195 40.9609C84.7195 40.334 84.951 39.7949 85.4139 39.3438C85.8826 38.8867 86.5477 38.5381 87.409 38.2979C88.2762 38.0576 89.2898 37.9375 90.45 37.9375C91.6102 37.9375 92.6209 38.0576 93.4822 38.2979C94.3436 38.5381 95.0057 38.8867 95.4686 39.3438C95.9373 39.7949 96.1746 40.334 96.1805 40.9609C96.1746 41.4766 96.0076 41.9336 95.6795 42.332C95.3572 42.7305 94.8914 43.0557 94.282 43.3076V45.3203H97.7098V46.8848ZM90.45 47.8516C91.5926 47.8457 92.574 47.9541 93.3943 48.1768C94.2146 48.3936 94.8445 48.7158 95.284 49.1436C95.7234 49.5654 95.9461 50.0781 95.952 50.6816C95.9461 51.291 95.7234 51.8066 95.284 52.2285C94.8445 52.6562 94.2146 52.9785 93.3943 53.1953C92.574 53.418 91.5926 53.5293 90.45 53.5293C89.2957 53.5293 88.3025 53.418 87.4705 53.1953C86.6443 52.9785 86.0115 52.6562 85.5721 52.2285C85.1326 51.8066 84.9129 51.291 84.9129 50.6816C84.9129 50.0781 85.1326 49.5654 85.5721 49.1436C86.0115 48.7158 86.6443 48.3936 87.4705 48.1768C88.3025 47.9541 89.2957 47.8457 90.45 47.8516ZM90.45 49.3281C89.284 49.3281 88.3992 49.4424 87.7957 49.6709C87.1922 49.8994 86.8934 50.2363 86.8992 50.6816C86.8934 51.127 87.1922 51.4668 87.7957 51.7012C88.4051 51.9355 89.2898 52.0527 90.45 52.0527C91.5867 52.0527 92.4598 51.9355 93.0691 51.7012C93.6844 51.4668 93.9949 51.127 94.0008 50.6816C93.9949 50.2363 93.6873 49.8994 93.0779 49.6709C92.4686 49.4424 91.5926 49.3281 90.45 49.3281ZM90.45 39.4492C89.2664 39.4492 88.3523 39.5811 87.7078 39.8447C87.0691 40.1025 86.7527 40.4746 86.7586 40.9609C86.7527 41.4414 87.0691 41.8076 87.7078 42.0596C88.3465 42.3115 89.2605 42.4375 90.45 42.4375C91.6277 42.4375 92.5389 42.3115 93.1834 42.0596C93.8338 41.8076 94.159 41.4414 94.159 40.9609C94.159 40.4746 93.8338 40.1025 93.1834 39.8447C92.5389 39.5811 91.6277 39.4492 90.45 39.4492ZM92.3309 45.3203V43.8086C91.7391 43.8906 91.1121 43.9316 90.45 43.9316C89.7879 43.9316 89.1609 43.8906 88.5691 43.8086V45.3203H92.3309ZM110.867 44.002H113.311V45.6191H110.867V53.5645H108.934V37.6738H110.867V44.002ZM107.703 41.6816H98.3341V40.1172H102.096V37.9023H104.047V40.1172H107.703V41.6816ZM103.08 42.7188C103.836 42.7188 104.516 42.8799 105.119 43.2021C105.729 43.5186 106.206 43.9609 106.552 44.5293C106.898 45.0977 107.07 45.7422 107.07 46.4629C107.07 47.1836 106.898 47.8281 106.552 48.3965C106.206 48.959 105.729 49.3984 105.119 49.7148C104.516 50.0312 103.836 50.1895 103.08 50.1895C102.313 50.1895 101.624 50.0312 101.015 49.7148C100.405 49.3984 99.9279 48.959 99.5822 48.3965C99.2365 47.8281 99.0666 47.1836 99.0724 46.4629C99.0666 45.7422 99.2365 45.0977 99.5822 44.5293C99.9279 43.9609 100.405 43.5186 101.015 43.2021C101.624 42.8799 102.313 42.7188 103.08 42.7188ZM103.08 44.3184C102.664 44.3184 102.292 44.4062 101.964 44.582C101.642 44.7578 101.39 45.0098 101.208 45.3379C101.027 45.6602 100.936 46.0352 100.936 46.4629C100.936 46.8906 101.027 47.2656 101.208 47.5879C101.39 47.9043 101.642 48.1504 101.964 48.3262C102.292 48.4961 102.664 48.5781 103.08 48.5723C103.485 48.5781 103.845 48.4961 104.161 48.3262C104.484 48.1504 104.736 47.9043 104.917 47.5879C105.105 47.2656 105.201 46.8906 105.207 46.4629C105.201 46.0352 105.105 45.6602 104.917 45.3379C104.736 45.0156 104.484 44.7666 104.161 44.5908C103.845 44.4092 103.485 44.3184 103.08 44.3184ZM119.63 41.4883C119.625 42.4668 119.786 43.4189 120.114 44.3447C120.442 45.2705 120.917 46.0938 121.538 46.8145C122.159 47.5352 122.888 48.0742 123.726 48.4316L122.566 49.9961C121.669 49.5801 120.887 48.9736 120.219 48.1768C119.557 47.3799 119.039 46.4512 118.664 45.3906C118.289 46.5391 117.758 47.5469 117.073 48.4141C116.393 49.2754 115.582 49.9258 114.638 50.3652L113.443 48.7305C114.304 48.3613 115.051 47.8047 115.684 47.0605C116.323 46.3105 116.809 45.4521 117.143 44.4854C117.477 43.5127 117.644 42.5137 117.644 41.4883V38.957H119.63V41.4883ZM126.837 53.582H124.869V37.6738H126.837V53.582ZM136.972 40.2754H140.171V37.6914H142.122V49.2578H140.171V45.25H136.972V46.6211H129.501V39.0098H136.972V40.2754ZM131.452 45.0918H135.038V40.5566H131.452V45.0918ZM142.474 53.248H131.645V48.1855H133.632V51.666H142.474V53.248ZM140.171 43.6855V41.875H136.972V43.6855H140.171ZM149.883 41.4883C149.883 42.4844 150.035 43.4482 150.34 44.3799C150.651 45.3057 151.102 46.126 151.694 46.8408C152.291 47.5557 153 48.0918 153.821 48.4492L152.643 50.0137C151.764 49.5859 151.005 48.9707 150.366 48.168C149.734 47.3652 149.244 46.4336 148.899 45.373C148.541 46.498 148.037 47.4883 147.387 48.3438C146.742 49.1992 145.975 49.8555 145.084 50.3125L143.854 48.7305C144.692 48.3379 145.412 47.7637 146.016 47.0078C146.625 46.252 147.088 45.3936 147.405 44.4326C147.727 43.4717 147.891 42.4902 147.897 41.4883V38.957H149.883V41.4883ZM157.336 53.582H155.403V44.3887H152.063V42.8066H155.403V37.6738H157.336V53.582ZM31.4473 68.3574H20.1973V61.0625H22.166V66.7578H31.4473V68.3574ZM33.0469 73.5781H18.5273V71.9258H33.0469V73.5781ZM46.9603 71.2051H44.9564V59.709H46.9603V71.2051ZM47.3646 75.248H36.2904V70.3086H38.2416V73.666H47.3646V75.248ZM38.6283 60.9746C38.6224 62.1641 38.5111 63.2246 38.2943 64.1562C38.0775 65.082 37.7142 65.9404 37.2045 66.7314C36.6947 67.5225 35.9974 68.2578 35.1127 68.9375L33.8119 67.7422C34.7611 67.0156 35.4613 66.251 35.9125 65.4482C36.3636 64.6455 36.642 63.6875 36.7474 62.5742H34.3392V60.9746H38.6283ZM43.181 60.9746C43.1752 62.252 43.0785 63.3857 42.891 64.376C42.7035 65.3662 42.3607 66.3037 41.8627 67.1885C41.3705 68.0674 40.6791 68.8906 39.7884 69.6582L38.4525 68.4629C39.1088 67.9121 39.639 67.3408 40.0433 66.749C40.4476 66.1514 40.7494 65.5156 40.9486 64.8418C41.1537 64.168 41.2855 63.4121 41.3441 62.5742H39.2084V60.9746H43.181ZM66.1387 68.9023H64.1876V65.0527H61.4454V63.4531H64.1876V59.6738H66.1387V68.9023ZM66.1387 75.3711H55.5743V69.5879H66.1387V75.3711ZM57.5255 73.7891H64.2227V71.1348H57.5255V73.7891ZM58.668 62.293C58.668 62.9434 58.8116 63.5762 59.0987 64.1914C59.3858 64.8066 59.8106 65.3604 60.3731 65.8525C60.9356 66.3447 61.6153 66.7285 62.4122 67.0039L61.4278 68.5508C60.5606 68.252 59.8106 67.8184 59.1778 67.25C58.5509 66.6816 58.0587 66.0137 57.7012 65.2461C57.338 66.0957 56.8253 66.834 56.1632 67.4609C55.5011 68.082 54.713 68.5449 53.7989 68.8496L52.797 67.3203C53.6173 67.0449 54.3175 66.6465 54.8975 66.125C55.4835 65.6035 55.9259 65.0117 56.2247 64.3496C56.5294 63.6816 56.6817 62.9902 56.6817 62.2754V62.1523H53.377V60.5703H61.9552V62.1523H58.668V62.293ZM75.2534 59.9199C76.4604 59.9199 77.4887 60.0254 78.3383 60.2363C79.1938 60.4473 79.8471 60.7578 80.2983 61.168C80.7495 61.5723 80.978 62.0645 80.9838 62.6445C80.978 63.5234 80.477 64.1973 79.4809 64.666C78.4848 65.1348 77.0756 65.375 75.2534 65.3867C73.4252 65.375 72.0131 65.1348 71.017 64.666C70.0209 64.1973 69.5229 63.5234 69.5229 62.6445C69.5229 62.0645 69.7485 61.5723 70.1996 61.168C70.6508 60.7578 71.3041 60.4473 72.1596 60.2363C73.0151 60.0254 74.0463 59.9199 75.2534 59.9199ZM75.2534 61.3613C74.0463 61.3613 73.1293 61.4727 72.5024 61.6953C71.8754 61.9121 71.5678 62.2285 71.5795 62.6445C71.5737 63.0781 71.8784 63.4004 72.4936 63.6113C73.1088 63.8223 74.0288 63.9277 75.2534 63.9277C76.4955 63.9277 77.4243 63.8223 78.0395 63.6113C78.6547 63.4004 78.9623 63.0781 78.9623 62.6445C78.9623 62.2285 78.6489 61.9121 78.0219 61.6953C77.395 61.4727 76.4721 61.3613 75.2534 61.3613ZM82.5131 67.7949H68.0288V66.2305H82.5131V67.7949ZM80.7026 72.752H71.6674V73.9297H81.142V75.4238H69.7514V71.3633H78.7866V70.3086H69.7338V68.8672H80.7026V72.752ZM99.6701 62.873H101.885V64.4902H99.6701V67.6543H97.7189V59.6738H99.6701V62.873ZM99.6701 72.5059H91.2326V73.8242H100.162V75.3711H89.299V71.082H97.7189V69.8516H89.2814V68.3398H99.6701V72.5059ZM91.5314 60.2012C92.3341 60.2012 93.0548 60.3535 93.6935 60.6582C94.3322 60.957 94.8332 61.3789 95.1964 61.9238C95.5597 62.4629 95.7443 63.0781 95.7502 63.7695C95.7443 64.4492 95.5597 65.0615 95.1964 65.6064C94.8332 66.1455 94.3293 66.5674 93.6847 66.8721C93.0461 67.1709 92.3283 67.3203 91.5314 67.3203C90.7287 67.3203 90.005 67.168 89.3605 66.8633C88.7218 66.5586 88.2179 66.1367 87.8488 65.5977C87.4855 65.0586 87.3068 64.4492 87.3127 63.7695C87.3068 63.0781 87.4855 62.4629 87.8488 61.9238C88.2121 61.3789 88.716 60.957 89.3605 60.6582C90.005 60.3535 90.7287 60.2012 91.5314 60.2012ZM91.5314 61.7832C91.0861 61.7832 90.6877 61.8652 90.3361 62.0293C89.9845 62.1934 89.7091 62.4248 89.5099 62.7236C89.3166 63.0225 89.2228 63.3711 89.2287 63.7695C89.2228 64.1621 89.3166 64.5107 89.5099 64.8154C89.7091 65.1201 89.9845 65.3574 90.3361 65.5273C90.6877 65.6914 91.0861 65.7734 91.5314 65.7734C91.9709 65.7734 92.3664 65.6914 92.7179 65.5273C93.0753 65.3574 93.3537 65.1201 93.5529 64.8154C93.7521 64.5107 93.8517 64.1621 93.8517 63.7695C93.8517 63.3711 93.7521 63.0225 93.5529 62.7236C93.3537 62.4248 93.0783 62.1934 92.7267 62.0293C92.3752 61.8652 91.9767 61.7832 91.5314 61.7832ZM115.64 75.582H113.689V69.0605H110.789V67.4609H113.689V64.7363H110.841V63.1367H113.689V59.6738H115.64V75.582ZM109.945 66.9863H104.847V70.3613C105.99 70.3496 107.033 70.3145 107.976 70.2559C108.925 70.1914 109.904 70.0859 110.912 69.9395L111.07 71.5391C109.945 71.7148 108.861 71.832 107.818 71.8906C106.775 71.9492 105.55 71.9785 104.144 71.9785H102.914V65.457H108.029V62.6094H102.861V61.0449H109.945V66.9863ZM132.015 70.1152H125.704V75.5469H123.77V70.1152H117.53V68.5332H132.015V70.1152ZM130.679 62.1172H125.906C125.947 62.6973 126.196 63.2568 126.653 63.7959C127.11 64.3291 127.737 64.7861 128.534 65.167C129.331 65.5479 130.239 65.8027 131.259 65.9316L130.556 67.4609C129.208 67.2734 128.027 66.8867 127.014 66.3008C126.006 65.7148 125.259 64.9883 124.772 64.1211C124.286 64.9824 123.539 65.709 122.531 66.3008C121.523 66.8867 120.354 67.2734 119.024 67.4609L118.286 65.9316C119.3 65.8027 120.202 65.5479 120.993 65.167C121.79 64.7861 122.417 64.3291 122.874 63.7959C123.337 63.2568 123.592 62.6973 123.639 62.1172H118.866V60.5703H130.679V62.1172ZM137.684 63.8398C137.684 64.7305 137.789 65.5947 138 66.4326C138.217 67.2705 138.554 68.0381 139.011 68.7354C139.468 69.4326 140.039 69.998 140.725 70.4316L139.653 71.9258C138.961 71.5098 138.375 70.9531 137.895 70.2559C137.414 69.5527 137.036 68.7471 136.761 67.8389C136.462 68.8291 136.055 69.708 135.539 70.4756C135.024 71.2432 134.403 71.8496 133.676 72.2949L132.463 70.8359C133.207 70.3848 133.828 69.793 134.326 69.0605C134.824 68.3281 135.194 67.5225 135.434 66.6436C135.68 65.7646 135.803 64.8594 135.803 63.9277V61.0801H137.684V63.8398ZM146.438 75.5645H144.557V59.6738H146.438V75.5645ZM143.133 74.791H141.287V66.7578H139.02V65.1406H141.287V59.9551H143.133V74.791ZM162.443 73.6309H147.923V72.0312H151.281V68.0146C150.636 67.6396 150.135 67.1738 149.778 66.6172C149.426 66.0605 149.254 65.4336 149.259 64.7363C149.254 63.9102 149.503 63.1777 150.006 62.5391C150.51 61.9004 151.211 61.4082 152.107 61.0625C153.004 60.7109 154.017 60.5352 155.148 60.5352C156.285 60.5352 157.301 60.7109 158.198 61.0625C159.1 61.4082 159.803 61.9004 160.307 62.5391C160.817 63.1719 161.072 63.9043 161.072 64.7363C161.072 65.416 160.899 66.0342 160.553 66.5908C160.213 67.1416 159.73 67.6016 159.103 67.9707V72.0312H162.443V73.6309ZM155.148 62.082C154.357 62.082 153.66 62.1904 153.056 62.4072C152.459 62.6182 151.993 62.9229 151.659 63.3213C151.331 63.7197 151.17 64.1914 151.175 64.7363C151.17 65.2754 151.331 65.7441 151.659 66.1426C151.993 66.541 152.462 66.8486 153.065 67.0654C153.669 67.2822 154.363 67.3906 155.148 67.3906C155.933 67.3906 156.628 67.2822 157.231 67.0654C157.84 66.8486 158.312 66.541 158.646 66.1426C158.986 65.7441 159.156 65.2754 159.156 64.7363C159.156 64.1973 158.986 63.7285 158.646 63.3301C158.312 62.9258 157.843 62.6182 157.24 62.4072C156.636 62.1904 155.939 62.082 155.148 62.082ZM157.117 72.0312V68.7178C156.496 68.8525 155.839 68.9199 155.148 68.9199C154.486 68.9199 153.841 68.8555 153.214 68.7266V72.0312H157.117ZM166.196 70.2559H164.21L163.999 61.2734H166.39L166.196 70.2559ZM165.212 74.1406C164.966 74.1406 164.737 74.0791 164.526 73.9561C164.315 73.833 164.148 73.666 164.025 73.4551C163.902 73.2441 163.841 73.0156 163.841 72.7695C163.841 72.5293 163.902 72.3066 164.025 72.1016C164.148 71.8906 164.315 71.7236 164.526 71.6006C164.737 71.4775 164.966 71.416 165.212 71.416C165.446 71.416 165.666 71.4775 165.871 71.6006C166.082 71.7236 166.249 71.8906 166.372 72.1016C166.501 72.3066 166.565 72.5293 166.565 72.7695C166.565 73.0156 166.501 73.2441 166.372 73.4551C166.249 73.666 166.082 73.833 165.871 73.9561C165.666 74.0791 165.446 74.1406 165.212 74.1406Z" fill="#333333"/>
<path d="M21.2344 93.2812C21.7109 93.2812 22.1387 93.4121 22.5176 93.6738C22.9004 93.9355 23.209 94.3047 23.4434 94.7812H26.0391V92.4961H27.1406V103.02H26.0391V98.9883H23.5137C23.291 99.5156 22.9805 99.9258 22.582 100.219C22.1875 100.508 21.7383 100.652 21.2344 100.652C20.7109 100.652 20.248 100.502 19.8457 100.201C19.4434 99.8965 19.1289 99.4668 18.9023 98.9121C18.6797 98.3535 18.5703 97.7031 18.5742 96.9609C18.5703 96.2227 18.6797 95.5762 18.9023 95.0215C19.1289 94.4629 19.4434 94.0332 19.8457 93.7324C20.252 93.4316 20.7148 93.2812 21.2344 93.2812ZM21.2344 94.2773C20.918 94.2773 20.6387 94.3867 20.3965 94.6055C20.1543 94.8242 19.9648 95.1367 19.8281 95.543C19.6953 95.9453 19.6289 96.418 19.6289 96.9609C19.6289 97.5078 19.6953 97.9844 19.8281 98.3906C19.9648 98.7969 20.1543 99.1094 20.3965 99.3281C20.6387 99.5469 20.918 99.6562 21.2344 99.6562C21.5508 99.6562 21.8301 99.5469 22.0723 99.3281C22.3145 99.1094 22.502 98.7969 22.6348 98.3906C22.7715 97.9844 22.8398 97.5078 22.8398 96.9609C22.8398 96.418 22.7715 95.9453 22.6348 95.543C22.502 95.1367 22.3145 94.8242 22.0723 94.6055C21.8301 94.3867 21.5508 94.2773 21.2344 94.2773ZM23.7598 95.6953C23.8496 96.1172 23.8945 96.5391 23.8945 96.9609C23.8945 97.3555 23.8594 97.7266 23.7891 98.0742H26.0391V95.6953H23.7598ZM37.26 103.02H36.1584V97.3711H34.2366V96.4453H36.1584V92.4961H37.26V103.02ZM33.6155 97.1953H30.0178V99.5859C30.9319 99.582 31.7248 99.5586 32.3967 99.5156C33.0725 99.4688 33.7561 99.3828 34.4475 99.2578L34.5413 100.172C33.8069 100.305 33.0764 100.395 32.3498 100.441C31.6272 100.488 30.7561 100.516 29.7366 100.523H28.9045V96.293H32.5373V94.3477H28.8811V93.4453H33.6155V97.1953ZM48.2466 98.8828H44.0747V100.816H42.9731V98.8828H38.6372V97.9922H48.2466V98.8828ZM47.1802 102.773H39.8325V99.9023H40.9341V101.871H47.1802V102.773ZM41.0044 94.1016H45.8677V92.8242H46.9809V97.0664H39.9028V92.8242H41.0044V94.1016ZM45.8677 96.1758V94.9336H41.0044V96.1758H45.8677ZM52.2019 93.2461C52.7488 93.2422 53.239 93.3457 53.6726 93.5566C54.1062 93.7676 54.4441 94.0645 54.6863 94.4473C54.9323 94.8262 55.0573 95.2578 55.0613 95.7422C55.0573 96.2266 54.9323 96.6602 54.6863 97.043C54.4441 97.4219 54.1062 97.7188 53.6726 97.9336C53.239 98.1445 52.7488 98.25 52.2019 98.25C51.655 98.25 51.1628 98.1445 50.7253 97.9336C50.2917 97.7188 49.9519 97.4219 49.7058 97.043C49.4597 96.6602 49.3386 96.2266 49.3425 95.7422C49.3386 95.2578 49.4597 94.8262 49.7058 94.4473C49.9519 94.0645 50.2917 93.7676 50.7253 93.5566C51.1628 93.3457 51.655 93.2422 52.2019 93.2461ZM52.2019 94.207C51.862 94.207 51.5573 94.2715 51.2878 94.4004C51.0222 94.5254 50.8132 94.7051 50.6609 94.9395C50.5124 95.1699 50.4402 95.4375 50.4441 95.7422C50.4402 96.0469 50.5124 96.3164 50.6609 96.5508C50.8132 96.7812 51.0222 96.9609 51.2878 97.0898C51.5573 97.2148 51.862 97.2773 52.2019 97.2773C52.5417 97.2773 52.8445 97.2148 53.1101 97.0898C53.3796 96.9609 53.5905 96.7812 53.7429 96.5508C53.8952 96.3164 53.9714 96.0469 53.9714 95.7422C53.9714 95.4375 53.8952 95.1699 53.7429 94.9395C53.5905 94.7051 53.3796 94.5254 53.1101 94.4004C52.8445 94.2715 52.5417 94.207 52.2019 94.207ZM57.4636 103.02H56.3503V92.4961H57.4636V103.02ZM48.8386 99.832C50.1355 99.832 51.3464 99.8105 52.4714 99.7676C53.6003 99.7207 54.6745 99.625 55.6941 99.4805L55.7761 100.289C54.7292 100.492 53.6648 100.621 52.5827 100.676C51.5046 100.73 50.3034 100.758 48.9792 100.758L48.8386 99.832ZM65.0227 93.2461C65.5695 93.2422 66.0598 93.3457 66.4934 93.5566C66.927 93.7676 67.2648 94.0645 67.507 94.4473C67.7531 94.8262 67.8781 95.2578 67.882 95.7422C67.8781 96.2266 67.7531 96.6602 67.507 97.043C67.2648 97.4219 66.927 97.7188 66.4934 97.9336C66.0598 98.1445 65.5695 98.25 65.0227 98.25C64.4758 98.25 63.9836 98.1445 63.5461 97.9336C63.1125 97.7188 62.7727 97.4219 62.5266 97.043C62.2805 96.6602 62.1594 96.2266 62.1633 95.7422C62.1594 95.2578 62.2805 94.8262 62.5266 94.4473C62.7727 94.0645 63.1125 93.7676 63.5461 93.5566C63.9836 93.3457 64.4758 93.2422 65.0227 93.2461ZM65.0227 94.207C64.6828 94.207 64.3781 94.2715 64.1086 94.4004C63.843 94.5254 63.634 94.7051 63.4816 94.9395C63.3332 95.1699 63.2609 95.4375 63.2648 95.7422C63.2609 96.0469 63.3332 96.3164 63.4816 96.5508C63.634 96.7812 63.843 96.9609 64.1086 97.0898C64.3781 97.2148 64.6828 97.2773 65.0227 97.2773C65.3625 97.2773 65.6652 97.2148 65.9309 97.0898C66.2004 96.9609 66.4113 96.7812 66.5637 96.5508C66.716 96.3164 66.7922 96.0469 66.7922 95.7422C66.7922 95.4375 66.716 95.1699 66.5637 94.9395C66.4113 94.7051 66.2004 94.5254 65.9309 94.4004C65.6652 94.2715 65.3625 94.207 65.0227 94.207ZM70.2844 103.02H69.1711V92.4961H70.2844V103.02ZM61.6594 99.832C62.9562 99.832 64.1672 99.8105 65.2922 99.7676C66.4211 99.7207 67.4953 99.625 68.5148 99.4805L68.5969 100.289C67.55 100.492 66.4855 100.621 65.4035 100.676C64.3254 100.73 63.1242 100.758 61.8 100.758L61.6594 99.832ZM80.4858 100.301H79.3725V97.8867H76.6889V96.9727H79.3725V95.5312H76.8354C76.4604 96.3438 75.8901 97.0527 75.1245 97.6582C74.3627 98.2598 73.4467 98.7305 72.3764 99.0703L71.8959 98.1914C72.6967 97.9336 73.3979 97.6074 73.9995 97.2129C74.601 96.8145 75.0815 96.3613 75.4409 95.8535C75.8041 95.3457 76.0229 94.7969 76.0971 94.207H72.435V93.3164H77.31C77.31 93.7617 77.2553 94.1992 77.1459 94.6289H79.3725V92.5078H80.4858V100.301ZM80.7553 102.773H73.7241V99.5273H74.8491V101.871H80.7553V102.773ZM91.4372 98.8711H81.863V97.9805H91.4372V98.8711ZM90.3591 102.773H83.07V99.7266H84.195V101.871H90.3591V102.773ZM86.6442 92.8477C87.3981 92.8438 88.0563 92.9258 88.6188 93.0938C89.1852 93.2617 89.6227 93.5039 89.9313 93.8203C90.2399 94.1367 90.3942 94.5117 90.3942 94.9453C90.3942 95.3828 90.2399 95.7617 89.9313 96.082C89.6266 96.3984 89.1911 96.6426 88.6247 96.8145C88.0583 96.9863 87.3981 97.0742 86.6442 97.0781C85.8864 97.0742 85.2243 96.9863 84.6579 96.8145C84.0954 96.6426 83.6598 96.3984 83.3512 96.082C83.0466 95.7617 82.8942 95.3828 82.8942 94.9453C82.8942 94.5117 83.0466 94.1367 83.3512 93.8203C83.6598 93.5039 84.0954 93.2617 84.6579 93.0938C85.2243 92.9258 85.8864 92.8438 86.6442 92.8477ZM86.6442 93.7383C86.113 93.7383 85.6501 93.7871 85.2555 93.8848C84.8649 93.9824 84.5641 94.123 84.3532 94.3066C84.1423 94.4863 84.0387 94.6992 84.0427 94.9453C84.0387 95.1992 84.1403 95.418 84.3473 95.6016C84.5583 95.7852 84.8591 95.9258 85.2497 96.0234C85.6442 96.1172 86.1091 96.1641 86.6442 96.1641C87.1794 96.1641 87.6423 96.1172 88.0329 96.0234C88.4235 95.9258 88.7223 95.7852 88.9294 95.6016C89.1403 95.418 89.2458 95.1992 89.2458 94.9453C89.2458 94.6992 89.1403 94.4863 88.9294 94.3066C88.7184 94.123 88.4177 93.9824 88.027 93.8848C87.6364 93.7871 87.1755 93.7383 86.6442 93.7383ZM103.391 100.137H102.277V92.5078H103.391V100.137ZM103.707 102.773H96.5236V99.3633H97.6486V101.871H103.707V102.773ZM97.6955 93.2109C98.2189 93.2109 98.6916 93.3223 99.1134 93.5449C99.5392 93.7676 99.8732 94.0762 100.115 94.4707C100.361 94.8652 100.485 95.3125 100.485 95.8125C100.485 96.3203 100.361 96.7734 100.115 97.1719C99.8732 97.5664 99.5392 97.875 99.1134 98.0977C98.6916 98.3164 98.2189 98.4258 97.6955 98.4258C97.172 98.4258 96.6974 98.3164 96.2716 98.0977C95.8459 97.875 95.5099 97.5645 95.2638 97.166C95.0177 96.7676 94.8947 96.3164 94.8947 95.8125C94.8947 95.3125 95.0177 94.8652 95.2638 94.4707C95.5099 94.0762 95.8459 93.7676 96.2716 93.5449C96.6974 93.3223 97.172 93.2109 97.6955 93.2109ZM97.6955 94.1836C97.3712 94.1836 97.0783 94.2539 96.8166 94.3945C96.5587 94.5312 96.3556 94.7227 96.2072 94.9688C96.0587 95.2148 95.9845 95.4961 95.9845 95.8125C95.9845 96.1367 96.0568 96.4238 96.2013 96.6738C96.3498 96.9199 96.5529 97.1113 96.8107 97.248C97.0724 97.3848 97.3673 97.4531 97.6955 97.4531C98.0158 97.4531 98.3048 97.3848 98.5627 97.248C98.8205 97.1113 99.0236 96.918 99.172 96.668C99.3205 96.418 99.3947 96.1328 99.3947 95.8125C99.3947 95.5 99.3205 95.2207 99.172 94.9746C99.0236 94.7246 98.8185 94.5312 98.5568 94.3945C98.299 94.2539 98.0119 94.1836 97.6955 94.1836ZM113.85 94.5703H105.307V93.6562H109.045V92.4492H110.147V93.6562H113.85V94.5703ZM114.424 100.207H110.147V103.008H109.045V100.207H104.815V99.293H114.424V100.207ZM109.596 95.1094C110.323 95.1094 110.948 95.1777 111.471 95.3145C111.995 95.4512 112.395 95.6523 112.672 95.918C112.95 96.1797 113.088 96.5 113.088 96.8789C113.088 97.25 112.95 97.5664 112.672 97.8281C112.395 98.0898 111.995 98.2891 111.471 98.4258C110.948 98.5625 110.323 98.6328 109.596 98.6367C108.866 98.6328 108.239 98.5625 107.715 98.4258C107.192 98.2891 106.791 98.0898 106.514 97.8281C106.237 97.5664 106.1 97.25 106.104 96.8789C106.1 96.5 106.237 96.1797 106.514 95.918C106.791 95.6523 107.192 95.4512 107.715 95.3145C108.239 95.1777 108.866 95.1094 109.596 95.1094ZM109.596 95.9414C108.838 95.9414 108.258 96.0215 107.856 96.1816C107.454 96.3418 107.252 96.5742 107.252 96.8789C107.252 97.1719 107.454 97.3984 107.856 97.5586C108.262 97.7148 108.842 97.793 109.596 97.793C110.346 97.793 110.922 97.7148 111.325 97.5586C111.727 97.3984 111.932 97.1719 111.94 96.8789C111.936 96.5742 111.731 96.3418 111.325 96.1816C110.922 96.0215 110.346 95.9414 109.596 95.9414ZM123.981 102.996H122.915V92.4961H123.981V102.996ZM121.848 102.48H120.782V97.418H119.598C119.567 98.0977 119.454 98.6875 119.258 99.1875C119.063 99.6875 118.799 100.072 118.467 100.342C118.135 100.607 117.755 100.738 117.325 100.734C116.872 100.738 116.473 100.59 116.13 100.289C115.79 99.9883 115.526 99.5586 115.339 99C115.155 98.4375 115.063 97.7812 115.063 97.0312C115.063 96.2812 115.155 95.627 115.339 95.0684C115.526 94.5098 115.79 94.082 116.13 93.7852C116.473 93.4844 116.872 93.3359 117.325 93.3398C117.747 93.3359 118.122 93.4629 118.45 93.7207C118.778 93.9746 119.04 94.3418 119.235 94.8223C119.434 95.2988 119.553 95.8633 119.592 96.5156H120.782V92.6953H121.848V102.48ZM117.325 94.3828C117.071 94.3828 116.852 94.4883 116.669 94.6992C116.485 94.9062 116.342 95.209 116.241 95.6074C116.143 96.002 116.094 96.4766 116.094 97.0312C116.094 97.5859 116.143 98.0625 116.241 98.4609C116.342 98.8555 116.485 99.1582 116.669 99.3691C116.852 99.5762 117.071 99.6797 117.325 99.6797C117.583 99.6797 117.805 99.5762 117.993 99.3691C118.18 99.1582 118.325 98.8555 118.426 98.4609C118.528 98.0625 118.579 97.5859 118.579 97.0312C118.579 96.4766 118.528 96.002 118.426 95.6074C118.325 95.209 118.18 94.9062 117.993 94.6992C117.805 94.4883 117.583 94.3828 117.325 94.3828ZM134.1 102.996H133.046V92.4961H134.1V102.996ZM131.886 102.48H130.831V97.6055H128.78C128.124 98.8789 127.089 99.9297 125.675 100.758L125.042 99.9609C126.136 99.3125 126.966 98.5508 127.532 97.6758C128.102 96.8008 128.434 95.8125 128.528 94.7109H125.534V93.7969H129.636C129.628 94.875 129.472 95.8477 129.167 96.7148H130.831V92.7656H131.886V102.48ZM146.288 93.9492C146.288 94.6406 146.271 95.2539 146.236 95.7891C146.204 96.3242 146.124 96.9336 145.995 97.6172H147.495V98.5195H137.898V97.6172H144.87C144.992 97.0469 145.074 96.4941 145.117 95.959L138.976 96.2344L138.835 95.3086L145.169 95.1328C145.181 94.8516 145.187 94.457 145.187 93.9492V93.9375H139.105V93.0234H146.288V93.9492ZM146.499 102.773H139.081V99.4805H140.195V101.871H146.499V102.773ZM159.226 98.2266H156.051V100.793H160.328V101.707H150.719V100.793H154.949V98.2266H151.914V93.3047H159.133V94.207H153.027V97.3359H159.226V98.2266ZM165.631 92.6719C166.397 92.6719 167.061 92.752 167.623 92.9121C168.19 93.0684 168.623 93.2969 168.924 93.5977C169.229 93.8984 169.381 94.2578 169.381 94.6758C169.381 95.082 169.229 95.4336 168.924 95.7305C168.623 96.0234 168.19 96.25 167.623 96.4102C167.061 96.5664 166.397 96.6445 165.631 96.6445C164.869 96.6445 164.205 96.5664 163.639 96.4102C163.076 96.25 162.643 96.0234 162.338 95.7305C162.033 95.4336 161.881 95.082 161.881 94.6758C161.881 94.2578 162.033 93.8984 162.338 93.5977C162.643 93.2969 163.076 93.0684 163.639 92.9121C164.201 92.752 164.865 92.6719 165.631 92.6719ZM165.631 93.5391C165.092 93.5391 164.627 93.584 164.236 93.6738C163.846 93.7598 163.545 93.8887 163.334 94.0605C163.127 94.2324 163.025 94.4375 163.029 94.6758C163.025 94.9062 163.127 95.1055 163.334 95.2734C163.545 95.4375 163.846 95.5625 164.236 95.6484C164.627 95.7344 165.092 95.7773 165.631 95.7773C166.166 95.7773 166.629 95.7344 167.02 95.6484C167.41 95.5625 167.709 95.4375 167.916 95.2734C168.127 95.1055 168.232 94.9062 168.232 94.6758C168.232 94.4375 168.127 94.2324 167.916 94.0605C167.709 93.8887 167.41 93.7598 167.02 93.6738C166.629 93.584 166.166 93.5391 165.631 93.5391ZM169.252 102.867H161.998V99.3633H165.08V98.2617H160.85V97.3594H170.424V98.2617H166.182V99.3633H169.252V102.867ZM163.1 101.965H168.174V100.254H163.1V101.965ZM179.676 103.02H178.563V92.4961H179.676V103.02ZM174.063 93.2812C174.582 93.2812 175.047 93.4336 175.457 93.7383C175.867 94.0391 176.188 94.4688 176.418 95.0273C176.653 95.582 176.77 96.2266 176.77 96.9609C176.77 97.6992 176.653 98.3477 176.418 98.9062C176.188 99.4648 175.867 99.8965 175.457 100.201C175.047 100.502 174.582 100.652 174.063 100.652C173.535 100.652 173.067 100.502 172.657 100.201C172.246 99.8965 171.924 99.4668 171.69 98.9121C171.459 98.3535 171.344 97.7031 171.344 96.9609C171.344 96.2227 171.459 95.5762 171.69 95.0215C171.924 94.4629 172.246 94.0332 172.657 93.7324C173.067 93.4316 173.535 93.2812 174.063 93.2812ZM174.063 94.2773C173.739 94.2773 173.451 94.3867 173.201 94.6055C172.955 94.8242 172.764 95.1367 172.627 95.543C172.491 95.9453 172.422 96.418 172.422 96.9609C172.422 97.5078 172.491 97.9844 172.627 98.3906C172.764 98.7969 172.955 99.1094 173.201 99.3281C173.451 99.5469 173.739 99.6562 174.063 99.6562C174.383 99.6562 174.666 99.5469 174.912 99.3281C175.159 99.1094 175.35 98.7969 175.487 98.3906C175.623 97.9844 175.692 97.5078 175.692 96.9609C175.692 96.418 175.623 95.9453 175.487 95.543C175.35 95.1367 175.159 94.8242 174.912 94.6055C174.666 94.3867 174.383 94.2773 174.063 94.2773ZM192.532 98.5547H191.407V92.5078H192.532V98.5547ZM183.825 97.4414C184.938 97.4414 185.915 97.4297 186.755 97.4062V96.375H184.762V93H189.778V93.9141H185.876V95.4961H189.872V96.375H187.856V97.3594C188.919 97.3047 189.837 97.2266 190.61 97.125L190.669 97.9102C189.661 98.082 188.618 98.1953 187.54 98.25C186.462 98.3047 185.278 98.3359 183.989 98.3438L183.825 97.4414ZM186.637 100.02H191.43V99.0117H192.532V102.867H185.524V99.0117H186.637V100.02ZM191.43 101.965V100.875H186.637V101.965H191.43ZM202.651 102.996H201.538V92.4961H202.651V102.996ZM195.679 99.3633C197.398 99.3516 199.007 99.1914 200.507 98.8828L200.659 99.8203C199.769 100 198.898 100.129 198.046 100.207C197.194 100.285 196.331 100.324 195.456 100.324H194.577V93.5156H195.679V99.3633ZM212.243 96.5625H213.931V97.4766H212.243V103.02H211.13V92.4961H212.243V96.5625ZM209.419 94.4062H205.622V99.4805C206.552 99.4766 207.368 99.4492 208.072 99.3984C208.779 99.3477 209.49 99.2578 210.204 99.1289L210.345 100.066C209.622 100.195 208.911 100.285 208.212 100.336C207.517 100.383 206.712 100.406 205.798 100.406H205.353H204.509V93.5039H209.419V94.4062ZM215.39 102.082C215.242 102.082 215.101 102.045 214.968 101.971C214.839 101.896 214.738 101.795 214.664 101.666C214.589 101.537 214.554 101.398 214.558 101.25C214.554 101.102 214.589 100.963 214.664 100.834C214.738 100.705 214.839 100.604 214.968 100.529C215.101 100.455 215.242 100.418 215.39 100.418C215.535 100.418 215.671 100.455 215.8 100.529C215.929 100.604 216.031 100.705 216.105 100.834C216.183 100.963 216.222 101.102 216.222 101.25C216.222 101.398 216.183 101.537 216.105 101.666C216.031 101.795 215.929 101.896 215.8 101.971C215.671 102.045 215.535 102.082 215.39 102.082Z" fill="#818181"/>
<path fill-rule="evenodd" clip-rule="evenodd" d="M245.058 59.6316L273.758 35.1932C275.627 33.6023 278.373 33.6023 280.242 35.1932L308.942 59.6316C309.353 59.9824 309.658 60.4332 309.832 60.9329H310V61.9231V100.933C310 103.142 308.209 104.933 306 104.933H248C245.791 104.933 244 103.142 244 100.933V61.9231V60.9329H244.168C244.342 60.4332 244.647 59.9824 245.058 59.6316Z" fill="#FF9393"/>
<rect x="251" y="48" width="52" height="43" rx="6" fill="white"/>
<rect x="257" y="56" width="27" height="4" rx="2" fill="#E7E7E7"/>
<rect x="257" y="62" width="35" height="4" rx="2" fill="#E7E7E7"/>
<path d="M309.999 101.93L309.999 61C290.322 74.8329 250.353 101.899 247.951 103.499C245.55 105.099 248.452 104.999 248.452 104.999C248.452 104.999 297.877 104.997 303.479 104.999C309.983 105 310.015 102.897 309.999 101.93Z" fill="#FFA7A7"/>
<path d="M244.001 101.93L244.001 61C263.053 74.8329 301.754 101.899 304.079 103.499C306.404 105.099 303.594 104.999 303.594 104.999C303.594 104.999 255.739 104.997 250.314 104.999C244.017 105 243.986 102.897 244.001 101.93Z" fill="#FFCDCD"/>
<rect x="299" y="118" width="30" height="16" rx="8" fill="black" fill-opacity="0.5"/>
<path d="M310.164 130H309.275V123.848H309.236L307.518 124.99V124.102L309.275 122.93H310.164V130ZM312.093 131.064H311.331L313.607 122.598H314.378L312.093 131.064ZM314.979 129.355L317.391 126.816C317.71 126.481 317.953 126.211 318.119 126.006C318.288 125.798 318.415 125.597 318.499 125.405C318.587 125.21 318.631 125.007 318.631 124.795C318.631 124.561 318.569 124.352 318.446 124.17C318.322 123.988 318.153 123.846 317.938 123.745C317.726 123.644 317.489 123.594 317.225 123.594C316.948 123.594 316.706 123.649 316.497 123.76C316.289 123.87 316.128 124.027 316.014 124.229C315.903 124.43 315.848 124.661 315.848 124.922H315.018C315.015 124.512 315.109 124.149 315.301 123.833C315.496 123.517 315.765 123.271 316.107 123.096C316.449 122.92 316.831 122.832 317.254 122.832C317.674 122.832 318.05 122.918 318.382 123.091C318.718 123.263 318.98 123.499 319.168 123.799C319.357 124.098 319.452 124.43 319.452 124.795C319.452 125.065 319.403 125.324 319.305 125.571C319.207 125.815 319.043 126.087 318.812 126.387C318.584 126.683 318.257 127.051 317.83 127.49L316.209 129.16V129.219H319.579V130H314.989L314.979 129.355Z" fill="white"/>
</svg>
