<svg width="335" height="140" viewBox="0 0 335 140" fill="none" xmlns="http://www.w3.org/2000/svg">
<g clip-path="url(#clip0_219_4682)">
<rect width="335" height="140" rx="10" fill="#FFEDED"/>
<rect x="299" y="118" width="30" height="16" rx="8" fill="black" fill-opacity="0.5"/>
<path d="M310.164 122.93V130H309.275V123.848H309.236L307.518 124.99V124.102L309.275 122.93H310.164ZM314.378 122.598L312.093 131.064H311.331L313.607 122.598H314.378ZM314.989 130L314.979 129.355L317.391 126.816C318.231 125.928 318.631 125.449 318.631 124.795C318.631 124.072 318.016 123.594 317.225 123.594C316.385 123.594 315.848 124.131 315.848 124.922H315.018C315.008 123.672 315.975 122.832 317.254 122.832C318.534 122.832 319.452 123.691 319.452 124.795C319.452 125.586 319.08 126.201 317.83 127.49L316.209 129.16V129.219H319.579V130H314.989Z" fill="white"/>
<rect width="335" height="140" rx="10" fill="#FFF4D2"/>
<path d="M23.5547 41.8047C23.5547 42.7305 23.6631 43.6123 23.8799 44.4502C24.1025 45.2881 24.4453 46.041 24.9082 46.709C25.3711 47.3711 25.957 47.8926 26.666 48.2734L25.5059 49.8203C24.8086 49.4336 24.2168 48.9092 23.7305 48.2471C23.25 47.585 22.8721 46.8174 22.5967 45.9443C22.2979 46.9053 21.8877 47.7578 21.3662 48.502C20.8506 49.2402 20.2324 49.8262 19.5117 50.2598L18.2637 48.8359C19.0137 48.3965 19.6436 47.8105 20.1533 47.0781C20.6631 46.3457 21.041 45.5371 21.2871 44.6523C21.5332 43.7676 21.6562 42.8594 21.6562 41.9277V39.0801H23.5547V41.8047ZM32.2383 53.5645H30.3574V45.5137H28.7227V52.791H26.877V37.9551H28.7227V43.9316H30.3574V37.6738H32.2383V53.5645ZM48.2435 51.7188H33.724V50.1016H39.9818V47.5176H35.4466V42.3145H44.5873V40.3457H35.4115V38.7637H46.5209V43.8613H37.3978V45.918H46.89V47.5176H41.9154V50.1016H48.2435V51.7188ZM63.4226 47.0957H57.2878V50.0137H55.3015V47.0957H48.903V45.5312H63.4226V47.0957ZM61.823 53.248H50.6784V48.5371H52.6472V51.6484H61.823V53.248ZM56.1452 38.0254C57.282 38.0254 58.278 38.1572 59.1335 38.4209C59.9948 38.6846 60.6599 39.0625 61.1286 39.5547C61.6032 40.041 61.8405 40.6152 61.8405 41.2773C61.8405 41.9395 61.6032 42.5137 61.1286 43C60.6599 43.4863 59.9948 43.8613 59.1335 44.125C58.278 44.3828 57.282 44.5117 56.1452 44.5117C55.0085 44.5117 54.0095 44.3828 53.1482 44.125C52.2927 43.8613 51.6277 43.4863 51.153 43C50.6843 42.5137 50.4499 41.9395 50.4499 41.2773C50.4499 40.6152 50.6843 40.041 51.153 39.5547C51.6277 39.0625 52.2927 38.6846 53.1482 38.4209C54.0095 38.1572 55.0085 38.0254 56.1452 38.0254ZM56.1452 39.5723C55.4187 39.5723 54.7829 39.6396 54.238 39.7744C53.6989 39.9092 53.2829 40.1055 52.99 40.3633C52.697 40.6152 52.5534 40.9199 52.5593 41.2773C52.5534 41.623 52.697 41.9219 52.99 42.1738C53.2829 42.4258 53.6989 42.6191 54.238 42.7539C54.7829 42.8828 55.4187 42.9473 56.1452 42.9473C56.8777 42.9473 57.5134 42.8828 58.0525 42.7539C58.5974 42.6191 59.0163 42.4258 59.3093 42.1738C59.6023 41.9219 59.7488 41.623 59.7488 41.2773C59.7488 40.9199 59.6023 40.6152 59.3093 40.3633C59.0163 40.1055 58.5974 39.9092 58.0525 39.7744C57.5134 39.6396 56.8777 39.5723 56.1452 39.5723ZM73.7241 40.5391C73.7241 41.2012 73.8647 41.8311 74.1459 42.4287C74.433 43.0264 74.8579 43.5566 75.4204 44.0195C75.9829 44.4766 76.6655 44.8281 77.4682 45.0742L76.5366 46.6035C75.6635 46.334 74.9077 45.9297 74.269 45.3906C73.6362 44.8516 73.1411 44.2158 72.7836 43.4834C72.4262 44.333 71.9135 45.0713 71.2455 45.6982C70.5776 46.3252 69.7748 46.7969 68.8373 47.1133L67.853 45.5664C68.685 45.291 69.394 44.8984 69.9799 44.3887C70.5659 43.873 71.0082 43.2842 71.3071 42.6221C71.6059 41.96 71.7553 41.2715 71.7553 40.5566V40.3633H68.3979V38.7812H77.0288V40.3633H73.7241V40.5391ZM80.562 41.4883H82.7768V43.0879H80.562V47.1484H78.6108V37.6738H80.562V41.4883ZM75.394 47.5C76.4838 47.5 77.4272 47.6201 78.2241 47.8604C79.0268 48.0947 79.642 48.4375 80.0698 48.8887C80.4975 49.3398 80.7143 49.8789 80.7202 50.5059C80.7143 51.1387 80.4946 51.6836 80.061 52.1406C79.6332 52.5977 79.0209 52.9463 78.2241 53.1865C77.4272 53.4268 76.4838 53.5469 75.394 53.5469C74.2924 53.5469 73.3373 53.4268 72.5288 53.1865C71.7202 52.9463 71.0991 52.5977 70.6655 52.1406C70.2319 51.6836 70.0151 51.1387 70.0151 50.5059C70.0151 49.8789 70.2319 49.3398 70.6655 48.8887C71.0991 48.4375 71.7202 48.0947 72.5288 47.8604C73.3373 47.6201 74.2924 47.5 75.394 47.5ZM75.394 49.0293C74.2983 49.0293 73.4516 49.1553 72.8539 49.4072C72.2621 49.6592 71.9663 50.0254 71.9663 50.5059C71.9663 50.998 72.2621 51.373 72.8539 51.6309C73.4516 51.8887 74.2983 52.0176 75.394 52.0176C76.4897 52.0176 77.3276 51.8887 77.9077 51.6309C78.4936 51.373 78.7866 50.998 78.7866 50.5059C78.7866 50.0254 78.4936 49.6592 77.9077 49.4072C77.3276 49.1553 76.4897 49.0293 75.394 49.0293ZM97.7449 51.5957H83.2254V50.0137H89.448V46.3398H91.3816V50.0137H97.7449V51.5957ZM91.4344 39.8008C91.4344 40.5977 91.6805 41.3711 92.1727 42.1211C92.6707 42.8711 93.3562 43.5156 94.2293 44.0547C95.1082 44.5879 96.0926 44.9395 97.1824 45.1094L96.3387 46.7266C94.9969 46.4746 93.8016 45.9854 92.7527 45.2588C91.7098 44.5264 90.9246 43.6416 90.3973 42.6045C90.0457 43.29 89.577 43.917 88.991 44.4854C88.4051 45.0479 87.7283 45.5225 86.9607 45.9092C86.1932 46.29 85.3699 46.5625 84.491 46.7266L83.6473 45.1094C84.7254 44.9395 85.698 44.5879 86.5652 44.0547C87.4383 43.5156 88.1209 42.8711 88.6131 42.1211C89.1053 41.3652 89.3543 40.5918 89.3602 39.8008V38.6406H91.4344V39.8008ZM112.924 46.3574H98.4044V44.8809H112.924V46.3574ZM111.166 50.9277H102.061V52.0352H111.641V53.3887H100.11V49.6621H109.233V48.6777H100.092V47.3066H111.166V50.9277ZM111.131 41.6113H102.184V42.6484H111.412V43.9844H100.25V40.3457H109.18V39.3789H100.197V38.0254H111.131V41.6113ZM130.063 40.873H132.278V42.4902H130.063V45.6543H128.112V37.6738H130.063V40.873ZM130.063 50.5059H121.626V51.8242H130.556V53.3711H119.692V49.082H128.112V47.8516H119.675V46.3398H130.063V50.5059ZM121.925 38.2012C122.727 38.2012 123.448 38.3535 124.087 38.6582C124.725 38.957 125.226 39.3789 125.59 39.9238C125.953 40.4629 126.138 41.0781 126.143 41.7695C126.138 42.4492 125.953 43.0615 125.59 43.6064C125.226 44.1455 124.723 44.5674 124.078 44.8721C123.439 45.1709 122.722 45.3203 121.925 45.3203C121.122 45.3203 120.398 45.168 119.754 44.8633C119.115 44.5586 118.611 44.1367 118.242 43.5977C117.879 43.0586 117.7 42.4492 117.706 41.7695C117.7 41.0781 117.879 40.4629 118.242 39.9238C118.605 39.3789 119.109 38.957 119.754 38.6582C120.398 38.3535 121.122 38.2012 121.925 38.2012ZM121.925 39.7832C121.479 39.7832 121.081 39.8652 120.729 40.0293C120.378 40.1934 120.102 40.4248 119.903 40.7236C119.71 41.0225 119.616 41.3711 119.622 41.7695C119.616 42.1621 119.71 42.5107 119.903 42.8154C120.102 43.1201 120.378 43.3574 120.729 43.5273C121.081 43.6914 121.479 43.7734 121.925 43.7734C122.364 43.7734 122.76 43.6914 123.111 43.5273C123.469 43.3574 123.747 43.1201 123.946 42.8154C124.145 42.5107 124.245 42.1621 124.245 41.7695C124.245 41.3711 124.145 41.0225 123.946 40.7236C123.747 40.4248 123.472 40.1934 123.12 40.0293C122.768 39.8652 122.37 39.7832 121.925 39.7832ZM146.033 53.582H144.082V47.0605H141.182V45.4609H144.082V42.7363H141.235V41.1367H144.082V37.6738H146.033V53.582ZM140.338 44.9863H135.24V48.3613C136.383 48.3496 137.426 48.3145 138.369 48.2559C139.319 48.1914 140.297 48.0859 141.305 47.9395L141.463 49.5391C140.338 49.7148 139.254 49.832 138.211 49.8906C137.168 49.9492 135.944 49.9785 134.537 49.9785H133.307V43.457H138.422V40.6094H133.254V39.0449H140.338V44.9863ZM162.408 48.1152H156.097V53.5469H154.164V48.1152H147.923V46.5332H162.408V48.1152ZM161.072 40.1172H156.299C156.34 40.6973 156.589 41.2568 157.046 41.7959C157.504 42.3291 158.13 42.7861 158.927 43.167C159.724 43.5479 160.632 43.8027 161.652 43.9316L160.949 45.4609C159.601 45.2734 158.421 44.8867 157.407 44.3008C156.399 43.7148 155.652 42.9883 155.166 42.1211C154.679 42.9824 153.932 43.709 152.924 44.3008C151.917 44.8867 150.748 45.2734 149.418 45.4609L148.679 43.9316C149.693 43.8027 150.595 43.5479 151.386 43.167C152.183 42.7861 152.81 42.3291 153.267 41.7959C153.73 41.2568 153.985 40.6973 154.032 40.1172H149.259V38.5703H161.072V40.1172ZM169.132 41.4883C169.126 42.4668 169.287 43.4189 169.615 44.3447C169.943 45.2705 170.418 46.0938 171.039 46.8145C171.66 47.5352 172.39 48.0742 173.227 48.4316L172.067 49.9961C171.171 49.5801 170.389 48.9736 169.721 48.1768C169.059 47.3799 168.54 46.4512 168.165 45.3906C167.79 46.5391 167.26 47.5469 166.574 48.4141C165.894 49.2754 165.083 49.9258 164.14 50.3652L162.944 48.7305C163.806 48.3613 164.553 47.8047 165.186 47.0605C165.824 46.3105 166.311 45.4521 166.644 44.4854C166.978 43.5127 167.145 42.5137 167.145 41.4883V38.957H169.132V41.4883ZM176.339 53.582H174.37V37.6738H176.339V53.582ZM186.473 40.2754H189.672V37.6914H191.623V49.2578H189.672V45.25H186.473V46.6211H179.002V39.0098H186.473V40.2754ZM180.953 45.0918H184.539V40.5566H180.953V45.0918ZM191.975 53.248H181.147V48.1855H183.133V51.666H191.975V53.248ZM189.672 43.6855V41.875H186.473V43.6855H189.672ZM31.0605 63.2246H33.293V64.8066H31.0605V68.3047H29.1094V59.6387H31.0605V63.2246ZM31.0605 72.8398H22.623V73.9648H31.5527V75.4238H20.6895V71.4863H29.1094V70.4316H20.6719V69.0078H31.0605V72.8398ZM27.9668 62.4512H18.5449V60.957H22.2891V59.5508H24.2402V60.957H27.9668V62.4512ZM23.2559 62.9434C24.0352 62.9492 24.7148 63.0605 25.2949 63.2773C25.8809 63.4883 26.332 63.79 26.6484 64.1826C26.9707 64.5693 27.1348 65.0234 27.1406 65.5449C27.1348 66.084 26.9707 66.5498 26.6484 66.9424C26.332 67.3291 25.8838 67.6279 25.3037 67.8389C24.7236 68.0439 24.041 68.1465 23.2559 68.1465C22.4707 68.1465 21.7852 68.0439 21.1992 67.8389C20.6133 67.6279 20.1592 67.3291 19.8369 66.9424C19.5146 66.5498 19.3535 66.084 19.3535 65.5449C19.3535 65.0234 19.5146 64.5693 19.8369 64.1826C20.1592 63.79 20.6133 63.4883 21.1992 63.2773C21.791 63.0605 22.4766 62.9492 23.2559 62.9434ZM23.2559 64.3496C22.6348 64.3496 22.1455 64.4551 21.7881 64.666C21.4307 64.877 21.252 65.1699 21.252 65.5449C21.252 65.9258 21.4307 66.2217 21.7881 66.4326C22.1455 66.6377 22.6348 66.7402 23.2559 66.7402C23.8828 66.7402 24.375 66.6377 24.7324 66.4326C25.0957 66.2217 25.2773 65.9258 25.2773 65.5449C25.2773 65.1699 25.0957 64.877 24.7324 64.666C24.3691 64.4551 23.877 64.3496 23.2559 64.3496ZM46.9603 71.1699H44.9916V59.6914H46.9603V71.1699ZM47.3998 75.248H36.4486V70.0098H38.4173V73.666H47.3998V75.248ZM38.2943 60.7285C39.0912 60.7285 39.8148 60.9014 40.4652 61.2471C41.1156 61.5869 41.6283 62.0586 42.0033 62.6621C42.3783 63.2656 42.5658 63.9453 42.5658 64.7012C42.5658 65.4688 42.3783 66.1572 42.0033 66.7666C41.6283 67.3701 41.1156 67.8418 40.4652 68.1816C39.8148 68.5215 39.0912 68.6914 38.2943 68.6914C37.4916 68.6914 36.7621 68.5215 36.1058 68.1816C35.4554 67.8418 34.9427 67.3701 34.5677 66.7666C34.1927 66.1572 34.0052 65.4688 34.0052 64.7012C34.0052 63.9453 34.1927 63.2656 34.5677 62.6621C34.9427 62.0586 35.4554 61.5869 36.1058 61.2471C36.7621 60.9014 37.4916 60.7285 38.2943 60.7285ZM38.2943 62.4336C37.8431 62.4336 37.4359 62.5273 37.0726 62.7148C36.7093 62.9023 36.4252 63.1689 36.2201 63.5146C36.015 63.8604 35.9154 64.2559 35.9213 64.7012C35.9154 65.1582 36.015 65.5596 36.2201 65.9053C36.4252 66.251 36.7093 66.5176 37.0726 66.7051C37.4359 66.8926 37.8431 66.9863 38.2943 66.9863C38.7338 66.9863 39.1322 66.8926 39.4896 66.7051C39.847 66.5176 40.1283 66.251 40.3334 65.9053C40.5443 65.5596 40.6498 65.1582 40.6498 64.7012C40.6498 64.2559 40.5443 63.8604 40.3334 63.5146C40.1283 63.1689 39.847 62.9023 39.4896 62.7148C39.1322 62.5273 38.7338 62.4336 38.2943 62.4336ZM65.6114 62.0469C65.6114 63.1777 65.5792 64.1885 65.5147 65.0791C65.4561 65.9639 65.3096 66.9746 65.0753 68.1113H67.3165V69.6934H61.0587V75.5293H59.0899V69.6934H52.8321V68.1113H63.1505C63.3497 67.2207 63.4962 66.3652 63.5899 65.5449L54.3262 66.002L54.0802 64.332L63.7042 64.0508C63.7159 63.793 63.7247 63.5381 63.7305 63.2861C63.7364 63.0342 63.7423 62.7852 63.7481 62.5391V62.1699H54.5723V60.6055H65.6114V62.0469ZM81.1772 61.8887H78.9975V64.9297H81.0893V66.459H76.2377V68.0938H82.5131V69.6406H68.0288V68.0938H74.269V66.459H69.4174V64.9297H71.5092V61.8887H69.3295V60.3066H81.1772V61.8887ZM80.8784 75.248H69.8217V70.7832H71.7729V73.666H80.8784V75.248ZM77.0288 64.9297V61.8887H73.4604V64.9297H77.0288ZM90.45 59.9199C91.657 59.9199 92.6853 60.0254 93.535 60.2363C94.3904 60.4473 95.0437 60.7578 95.4949 61.168C95.9461 61.5723 96.1746 62.0645 96.1805 62.6445C96.1746 63.5234 95.6736 64.1973 94.6775 64.666C93.6814 65.1348 92.2723 65.375 90.45 65.3867C88.6219 65.375 87.2098 65.1348 86.2137 64.666C85.2176 64.1973 84.7195 63.5234 84.7195 62.6445C84.7195 62.0645 84.9451 61.5723 85.3963 61.168C85.8475 60.7578 86.5008 60.4473 87.3562 60.2363C88.2117 60.0254 89.243 59.9199 90.45 59.9199ZM90.45 61.3613C89.243 61.3613 88.326 61.4727 87.699 61.6953C87.0721 61.9121 86.7645 62.2285 86.7762 62.6445C86.7703 63.0781 87.075 63.4004 87.6902 63.6113C88.3055 63.8223 89.2254 63.9277 90.45 63.9277C91.6922 63.9277 92.6209 63.8223 93.2361 63.6113C93.8514 63.4004 94.159 63.0781 94.159 62.6445C94.159 62.2285 93.8455 61.9121 93.2186 61.6953C92.5916 61.4727 91.6687 61.3613 90.45 61.3613ZM97.7098 67.7949H83.2254V66.2305H97.7098V67.7949ZM95.8992 72.752H86.8641V73.9297H96.3387V75.4238H84.948V71.3633H93.9832V70.3086H84.9305V68.8672H95.8992V72.752ZM115.236 68.6914H104.091V61.0625H115.113V62.6445H106.025V67.127H115.236V68.6914ZM116.853 73.543H102.334V71.9258H116.853V73.543ZM130.837 75.582H128.886V69.0605H125.985V67.4609H128.886V64.7363H126.038V63.1367H128.886V59.6738H130.837V75.582ZM125.141 66.9863H120.044V70.3613C121.186 70.3496 122.229 70.3145 123.173 70.2559C124.122 70.1914 125.1 70.0859 126.108 69.9395L126.266 71.5391C125.141 71.7148 124.058 71.832 123.015 71.8906C121.972 71.9492 120.747 71.9785 119.341 71.9785H118.11V65.457H123.225V62.6094H118.058V61.0449H125.141V66.9863ZM147.246 73.6309H132.727V72.0312H136.084V68.0146C135.44 67.6396 134.939 67.1738 134.581 66.6172C134.23 66.0605 134.057 65.4336 134.063 64.7363C134.057 63.9102 134.306 63.1777 134.81 62.5391C135.314 61.9004 136.014 61.4082 136.91 61.0625C137.807 60.7109 138.821 60.5352 139.951 60.5352C141.088 60.5352 142.105 60.7109 143.001 61.0625C143.904 61.4082 144.607 61.9004 145.111 62.5391C145.62 63.1719 145.875 63.9043 145.875 64.7363C145.875 65.416 145.702 66.0342 145.357 66.5908C145.017 67.1416 144.533 67.6016 143.906 67.9707V72.0312H147.246V73.6309ZM139.951 62.082C139.16 62.082 138.463 62.1904 137.86 62.4072C137.262 62.6182 136.796 62.9229 136.462 63.3213C136.134 63.7197 135.973 64.1914 135.979 64.7363C135.973 65.2754 136.134 65.7441 136.462 66.1426C136.796 66.541 137.265 66.8486 137.868 67.0654C138.472 67.2822 139.166 67.3906 139.951 67.3906C140.737 67.3906 141.431 67.2822 142.034 67.0654C142.644 66.8486 143.115 66.541 143.449 66.1426C143.789 65.7441 143.959 65.2754 143.959 64.7363C143.959 64.1973 143.789 63.7285 143.449 63.3301C143.115 62.9258 142.647 62.6182 142.043 62.4072C141.44 62.1904 140.742 62.082 139.951 62.082ZM141.92 72.0312V68.7178C141.299 68.8525 140.643 68.9199 139.951 68.9199C139.289 68.9199 138.645 68.8555 138.018 68.7266V72.0312H141.92Z" fill="#333333"/>
<path d="M27.3984 102.996H26.332V92.4961H27.3984V102.996ZM25.2656 102.469H24.2109V97.125H22.582V96.2109H24.2109V92.7188H25.2656V102.469ZM21.5508 95.4258C21.5508 96.0352 21.6328 96.627 21.7969 97.2012C21.9648 97.7715 22.2129 98.2891 22.541 98.7539C22.873 99.2188 23.2773 99.5898 23.7539 99.8672L23.0859 100.688C22.5977 100.395 22.1797 99.9961 21.832 99.4922C21.4844 98.9883 21.2168 98.4121 21.0293 97.7637C20.8379 98.4668 20.5625 99.0938 20.2031 99.6445C19.8438 100.191 19.4141 100.621 18.9141 100.934L18.2344 100.102C18.7148 99.8086 19.123 99.416 19.459 98.9238C19.7988 98.4316 20.0547 97.8848 20.2266 97.2832C20.3984 96.6777 20.4844 96.0586 20.4844 95.4258V94.582H18.5508V93.6797H23.3555V94.582H21.5508V95.4258ZM38.1272 101.695H28.5178V100.77H32.7483V98.6133H29.6194V93.2109H30.7327V95.0156H35.8889V93.2109H36.9905V98.6133H33.8498V100.77H38.1272V101.695ZM35.8889 97.7109V95.918H30.7327V97.7109H35.8889ZM46.8286 96.75H48.5161V97.6758H46.8286V102.996H45.727V92.4961H46.8286V96.75ZM44.813 95.0508H38.5903V94.1367H41.1802V92.6367H42.2934V94.1367H44.813V95.0508ZM41.7427 95.8242C42.2388 95.8242 42.6841 95.9277 43.0786 96.1348C43.4731 96.3418 43.7837 96.6309 44.0102 97.002C44.2368 97.373 44.352 97.793 44.3559 98.2617C44.352 98.7344 44.2368 99.1562 44.0102 99.5273C43.7837 99.8984 43.4731 100.188 43.0786 100.395C42.6841 100.602 42.2388 100.707 41.7427 100.711C41.2427 100.707 40.7934 100.602 40.395 100.395C40.0005 100.188 39.6899 99.8984 39.4634 99.5273C39.2407 99.1562 39.1294 98.7344 39.1294 98.2617C39.1294 97.793 39.2407 97.373 39.4634 97.002C39.6899 96.6309 40.0005 96.3418 40.395 96.1348C40.7934 95.9277 41.2427 95.8242 41.7427 95.8242ZM41.7427 96.7383C41.4497 96.7383 41.1841 96.8027 40.9458 96.9316C40.7075 97.0605 40.522 97.2402 40.3891 97.4707C40.2563 97.7012 40.1919 97.9648 40.1958 98.2617C40.1919 98.5625 40.2563 98.8281 40.3891 99.0586C40.522 99.2891 40.7055 99.4668 40.9399 99.5918C41.1782 99.7168 41.4458 99.7773 41.7427 99.7734C42.0356 99.7773 42.2993 99.7168 42.5337 99.5918C42.772 99.4668 42.9575 99.2891 43.0903 99.0586C43.2231 98.8281 43.2895 98.5625 43.2895 98.2617C43.2895 97.9648 43.2231 97.7012 43.0903 97.4707C42.9575 97.2402 42.772 97.0605 42.5337 96.9316C42.2993 96.8027 42.0356 96.7383 41.7427 96.7383ZM57.2761 94.5352C57.2761 95.125 57.2683 95.6387 57.2527 96.0762C57.2409 96.5098 57.2058 97.0117 57.1472 97.582C57.0925 98.1523 57.0027 98.7695 56.8777 99.4336L55.7527 99.3164C55.8777 98.6875 55.9695 98.0957 56.028 97.541C56.0905 96.9824 56.1277 96.4863 56.1394 96.0527C56.155 95.6191 56.1628 95.1133 56.1628 94.5352V94.4062H49.7878V93.5039H57.2761V94.5352ZM58.3542 101.578H48.78V100.652H52.4245V96.9492H53.5261V100.652H58.3542V101.578ZM69.8508 94.9219H71.3859V95.8359H69.8508V98.2383H68.7375V92.4609H69.8508V94.9219ZM69.8508 101.168H64.1789V102.047H70.2141V102.891H63.0891V100.383H68.7492V99.5625H63.0656V98.7305H69.8508V101.168ZM67.8703 94.2656H61.6125V93.3867H64.1906V92.4023H65.3039V93.3867H67.8703V94.2656ZM64.7414 94.6641C65.2492 94.6641 65.6945 94.7344 66.0773 94.875C66.4641 95.0117 66.7609 95.2109 66.968 95.4727C67.1789 95.7305 67.2844 96.0352 67.2844 96.3867C67.2844 96.7383 67.1789 97.043 66.968 97.3008C66.7609 97.5586 66.466 97.7559 66.0832 97.8926C65.7004 98.0293 65.2531 98.0977 64.7414 98.0977C64.2258 98.0977 63.7746 98.0293 63.3879 97.8926C63.0051 97.7559 62.7082 97.5586 62.4973 97.3008C62.2902 97.043 62.1867 96.7383 62.1867 96.3867C62.1867 96.0352 62.2922 95.7305 62.5031 95.4727C62.7141 95.2109 63.0109 95.0117 63.3937 94.875C63.7805 94.7344 64.2297 94.6641 64.7414 94.6641ZM64.7414 95.4609C64.4445 95.4609 64.1828 95.5 63.9562 95.5781C63.7336 95.6523 63.5617 95.7598 63.4406 95.9004C63.3195 96.0371 63.2609 96.1992 63.2648 96.3867C63.2609 96.6641 63.3918 96.8848 63.6574 97.0488C63.927 97.209 64.2883 97.2891 64.7414 97.2891C65.1945 97.2891 65.5559 97.209 65.8254 97.0488C66.0988 96.8887 66.2375 96.668 66.2414 96.3867C66.2375 96.1992 66.173 96.0371 66.048 95.9004C65.923 95.7598 65.7473 95.6523 65.5207 95.5781C65.298 95.5 65.0383 95.4609 64.7414 95.4609ZM80.4389 100.137H79.3256V92.5078H80.4389V100.137ZM80.7553 102.773H73.5717V99.3633H74.6967V101.871H80.7553V102.773ZM74.7436 93.2109C75.267 93.2109 75.7397 93.3223 76.1616 93.5449C76.5873 93.7676 76.9213 94.0762 77.1635 94.4707C77.4096 94.8652 77.5327 95.3125 77.5327 95.8125C77.5327 96.3203 77.4096 96.7734 77.1635 97.1719C76.9213 97.5664 76.5873 97.875 76.1616 98.0977C75.7397 98.3164 75.267 98.4258 74.7436 98.4258C74.2202 98.4258 73.7455 98.3164 73.3198 98.0977C72.894 97.875 72.558 97.5645 72.312 97.166C72.0659 96.7676 71.9428 96.3164 71.9428 95.8125C71.9428 95.3125 72.0659 94.8652 72.312 94.4707C72.558 94.0762 72.894 93.7676 73.3198 93.5449C73.7455 93.3223 74.2202 93.2109 74.7436 93.2109ZM74.7436 94.1836C74.4194 94.1836 74.1264 94.2539 73.8647 94.3945C73.6069 94.5312 73.4038 94.7227 73.2553 94.9688C73.1069 95.2148 73.0327 95.4961 73.0327 95.8125C73.0327 96.1367 73.1049 96.4238 73.2495 96.6738C73.3979 96.9199 73.601 97.1113 73.8588 97.248C74.1205 97.3848 74.4155 97.4531 74.7436 97.4531C75.0639 97.4531 75.353 97.3848 75.6108 97.248C75.8686 97.1113 76.0717 96.918 76.2202 96.668C76.3686 96.418 76.4428 96.1328 76.4428 95.8125C76.4428 95.5 76.3686 95.2207 76.2202 94.9746C76.0717 94.7246 75.8666 94.5312 75.6049 94.3945C75.3471 94.2539 75.06 94.1836 74.7436 94.1836ZM92.9433 94.0898C92.9433 94.8398 92.9218 95.5078 92.8788 96.0938C92.8398 96.6797 92.7402 97.3516 92.58 98.1094H94.1269V99.0117H89.9081V102.984H88.7948V99.0117H84.5527V98.1094H91.4843C91.6366 97.4805 91.7441 96.8613 91.8066 96.252L85.5722 96.5625L85.4316 95.6016L91.8652 95.4023C91.8808 95.0898 91.8886 94.6523 91.8886 94.0898V94.0312H85.7363V93.1289H92.9433V94.0898ZM103.356 93.8555H101.832V96.0586H103.309V96.9375H100.016V98.1211H104.258V99.0117H94.6837V98.1211H98.9142V96.9375H95.6095V96.0586H97.0978V93.8555H95.5627V92.9414H103.356V93.8555ZM103.18 102.773H95.8908V99.8555H97.0158V101.871H103.18V102.773ZM100.719 96.0586V93.8555H98.1994V96.0586H100.719ZM115.755 94.9805H117.278V95.9062H115.755V98.625H114.641V92.4961H115.755V94.9805ZM109.005 94.6172H111.758V93.0938H112.86V98.0156H107.915V93.0938H109.005V94.6172ZM111.758 97.1367V95.4961H109.005V97.1367H111.758ZM115.837 100.066H110.176V101.965H116.024V102.844H109.063V99.1758H115.837V100.066ZM126.366 102.996H125.241V92.4961H126.366V102.996ZM123.237 93.6211C123.237 95.2461 122.849 96.6914 122.071 97.957C121.298 99.2188 120.05 100.262 118.327 101.086L117.741 100.184C119.12 99.5273 120.165 98.7285 120.876 97.7871C121.591 96.8457 122.003 95.7539 122.112 94.5117H118.245V93.6211H123.237ZM129.595 99.5508H128.435L128.329 93.5156H129.7L129.595 99.5508ZM129.021 102.082C128.872 102.082 128.732 102.045 128.599 101.971C128.47 101.896 128.368 101.795 128.294 101.666C128.22 101.537 128.185 101.398 128.189 101.25C128.185 101.102 128.22 100.963 128.294 100.834C128.368 100.705 128.47 100.604 128.599 100.529C128.732 100.455 128.872 100.418 129.021 100.418C129.165 100.418 129.302 100.455 129.431 100.529C129.56 100.604 129.661 100.705 129.735 100.834C129.814 100.963 129.853 101.102 129.853 101.25C129.853 101.398 129.814 101.537 129.735 101.666C129.661 101.795 129.56 101.896 129.431 101.971C129.302 102.045 129.165 102.082 129.021 102.082Z" fill="#818181"/>
<path d="M308.908 76.5443C308.385 77.141 307.549 77.5301 306.335 77.6149C305.116 77.7001 303.594 77.4685 301.852 76.8981C298.372 75.7586 294.216 73.3321 290.248 69.8579C286.28 66.3837 283.326 62.5841 281.737 59.2857C280.942 57.6345 280.511 56.1559 280.434 54.936C280.358 53.722 280.633 52.8415 281.156 52.2448C281.678 51.6481 282.515 51.259 283.728 51.1742C284.948 51.089 286.47 51.3206 288.212 51.891C291.691 53.0305 295.848 55.4569 299.816 58.9312C303.783 62.4054 306.738 66.2049 308.327 69.5034C309.122 71.1546 309.553 72.6331 309.629 73.8531C309.705 75.0671 309.43 75.9476 308.908 76.5443Z" stroke="#4E4E4E" stroke-width="2.07118"/>
<path fill-rule="evenodd" clip-rule="evenodd" d="M263.59 43.3317C262.353 43.6141 261.313 44.4478 260.769 45.5942L239.776 89.8292C238.795 91.8961 239.675 94.3667 241.742 95.3476L268.874 108.224C270.941 109.205 273.411 108.325 274.392 106.258L295.4 61.9923C295.936 60.8632 295.933 59.5526 295.393 58.4256L287.165 41.2619C286.329 39.5167 284.395 38.5834 282.508 39.014L263.59 43.3317ZM276.124 57.9257C278.449 59.0292 281.228 58.0389 282.332 55.7137C283.435 53.3885 282.445 50.6091 280.12 49.5056C277.794 48.4021 275.015 49.3924 273.911 51.7176C272.808 54.0428 273.798 56.8222 276.124 57.9257Z" fill="#FFCF3F"/>
<path d="M265.483 70.2027C267.709 71.2595 268.524 73.5033 267.53 75.599C266.544 77.676 264.29 78.4634 262.064 77.4067C259.856 76.3588 259.041 74.115 260.026 72.038C261.021 69.9423 263.275 69.1549 265.483 70.2027ZM276.221 75.6428L258.879 86.0974L256.316 84.8808L273.657 74.4262L276.221 75.6428ZM264.452 72.3733C263.61 71.9737 262.719 72.307 262.328 73.1303C261.937 73.9536 262.243 74.8552 263.085 75.2548C263.927 75.6544 264.819 75.3211 265.209 74.4978C265.6 73.6745 265.294 72.7729 264.452 72.3733ZM270.463 83.0894C272.69 84.1461 273.505 86.3899 272.51 88.4856C271.524 90.5626 269.271 91.35 267.044 90.2933C264.836 89.2454 264.021 87.0016 265.007 84.9246C266.001 82.8289 268.255 82.0415 270.463 83.0894ZM269.433 85.2599C268.591 84.8603 267.699 85.1936 267.308 86.0169C266.918 86.8402 267.223 87.7418 268.065 88.1415C268.907 88.5411 269.799 88.2078 270.19 87.3845C270.581 86.5611 270.275 85.6595 269.433 85.2599Z" fill="white"/>
<path fill-rule="evenodd" clip-rule="evenodd" d="M293.823 55.3364C293.921 55.3982 294.02 55.4608 294.118 55.5241L294.028 55.3364H293.823ZM291.074 69.058C291.336 69.2872 291.588 69.6151 291.851 69.8347L290.816 71.647C290.402 71.3096 289.672 70.7114 289.262 70.3525C284.501 66.184 281.307 61.3166 279.941 57.4747C280.609 57.1704 281.208 56.7082 281.676 56.1101C281.874 56.7906 282.164 57.5422 282.556 58.3554C284.071 61.5006 287.449 65.6923 291.074 69.058Z" fill="#4E4E4E"/>
</g>
<defs>
<clipPath id="clip0_219_4682">
<rect width="335" height="140" rx="10" fill="white"/>
</clipPath>
</defs>
</svg>
