<svg width="335" height="140" viewBox="0 0 335 140" fill="none" xmlns="http://www.w3.org/2000/svg">
<rect width="335" height="140" rx="10" fill="#FFEDED"/>
<path d="M31.7637 49.1699H29.7949V37.6914H31.7637V49.1699ZM32.2031 53.248H21.252V48.0098H23.2207V51.666H32.2031V53.248ZM23.0977 38.7285C23.8945 38.7285 24.6182 38.9014 25.2686 39.2471C25.9189 39.5869 26.4316 40.0586 26.8066 40.6621C27.1816 41.2656 27.3691 41.9453 27.3691 42.7012C27.3691 43.4688 27.1816 44.1572 26.8066 44.7666C26.4316 45.3701 25.9189 45.8418 25.2686 46.1816C24.6182 46.5215 23.8945 46.6914 23.0977 46.6914C22.2949 46.6914 21.5654 46.5215 20.9092 46.1816C20.2588 45.8418 19.7461 45.3701 19.3711 44.7666C18.9961 44.1572 18.8086 43.4688 18.8086 42.7012C18.8086 41.9453 18.9961 41.2656 19.3711 40.6621C19.7461 40.0586 20.2588 39.5869 20.9092 39.2471C21.5654 38.9014 22.2949 38.7285 23.0977 38.7285ZM23.0977 40.4336C22.6465 40.4336 22.2393 40.5273 21.876 40.7148C21.5127 40.9023 21.2285 41.1689 21.0234 41.5146C20.8184 41.8604 20.7188 42.2559 20.7246 42.7012C20.7188 43.1582 20.8184 43.5596 21.0234 43.9053C21.2285 44.251 21.5127 44.5176 21.876 44.7051C22.2393 44.8926 22.6465 44.9863 23.0977 44.9863C23.5371 44.9863 23.9355 44.8926 24.293 44.7051C24.6504 44.5176 24.9316 44.251 25.1367 43.9053C25.3477 43.5596 25.4531 43.1582 25.4531 42.7012C25.4531 42.2559 25.3477 41.8604 25.1367 41.5146C24.9316 41.1689 24.6504 40.9023 24.293 40.7148C23.9355 40.5273 23.5371 40.4336 23.0977 40.4336ZM47.4173 40.9609H34.4447V39.3789H39.9818V37.6387H41.9154V39.3789H47.4173V40.9609ZM48.2435 49.5391H41.9154V53.582H39.9818V49.5391H33.724V47.9395H48.2435V49.5391ZM40.9486 41.6816C42.0677 41.6816 43.0287 41.7871 43.8314 41.998C44.64 42.2031 45.2582 42.5078 45.6859 42.9121C46.1136 43.3105 46.3275 43.7969 46.3275 44.3711C46.3275 44.9453 46.1136 45.4346 45.6859 45.8389C45.2582 46.2373 44.64 46.542 43.8314 46.7529C43.0287 46.958 42.0677 47.0605 40.9486 47.0605C39.8295 47.0605 38.8656 46.958 38.057 46.7529C37.2543 46.542 36.639 46.2373 36.2113 45.8389C35.7836 45.4346 35.5697 44.9453 35.5697 44.3711C35.5697 43.7969 35.7836 43.3105 36.2113 42.9121C36.639 42.5078 37.2543 42.2031 38.057 41.998C38.8656 41.7871 39.8295 41.6816 40.9486 41.6816ZM40.9486 43.1406C39.847 43.1406 39.0121 43.2461 38.4437 43.457C37.8812 43.6621 37.6029 43.9668 37.6088 44.3711C37.6029 44.7754 37.8812 45.083 38.4437 45.2939C39.0121 45.499 39.847 45.6016 40.9486 45.6016C42.0502 45.6016 42.8851 45.499 43.4535 45.2939C44.0218 45.083 44.306 44.7754 44.306 44.3711C44.306 43.9668 44.0218 43.6621 43.4535 43.457C42.8851 43.2461 42.0502 43.1406 40.9486 43.1406ZM63.4226 46.3574H48.903V44.8809H63.4226V46.3574ZM61.6648 50.9277H52.5593V52.0352H62.1394V53.3887H50.6081V49.6621H59.7312V48.6777H50.5905V47.3066H61.6648V50.9277ZM61.6296 41.6113H52.6823V42.6484H61.9109V43.9844H50.7488V40.3457H59.6784V39.3789H50.696V38.0254H61.6296V41.6113ZM81.2475 53.582H79.2788V37.6738H81.2475V53.582ZM72.687 38.834C73.4838 38.834 74.1928 39.0654 74.8139 39.5283C75.4409 39.9854 75.933 40.6387 76.2905 41.4883C76.6479 42.332 76.8295 43.3164 76.8354 44.4414C76.8295 45.5723 76.6479 46.5625 76.2905 47.4121C75.9389 48.2617 75.4496 48.918 74.8227 49.3809C74.1957 49.8379 73.4838 50.0664 72.687 50.0664C71.8842 50.0664 71.1694 49.8379 70.5424 49.3809C69.9155 48.918 69.4233 48.2617 69.0659 47.4121C68.7143 46.5625 68.5385 45.5723 68.5385 44.4414C68.5385 43.3164 68.7143 42.332 69.0659 41.4883C69.4233 40.6387 69.9155 39.9854 70.5424 39.5283C71.1694 39.0654 71.8842 38.834 72.687 38.834ZM72.687 40.5918C72.2358 40.5918 71.8373 40.7441 71.4916 41.0488C71.1518 41.3535 70.8881 41.7959 70.7006 42.376C70.5131 42.9561 70.4194 43.6445 70.4194 44.4414C70.4194 45.2441 70.5131 45.9355 70.7006 46.5156C70.8881 47.0957 71.1518 47.541 71.4916 47.8516C71.8373 48.1562 72.2358 48.3086 72.687 48.3086C73.1323 48.3086 73.5248 48.1562 73.8647 47.8516C74.2045 47.541 74.4682 47.0957 74.6557 46.5156C74.8432 45.9355 74.937 45.2441 74.937 44.4414C74.937 43.6445 74.8432 42.959 74.6557 42.3848C74.4682 41.8047 74.2045 41.3623 73.8647 41.0576C73.5248 40.7471 73.1323 40.5918 72.687 40.5918ZM97.7098 46.8848H83.2254V45.3203H86.6004V43.3076C85.9969 43.0498 85.5311 42.7217 85.2029 42.3232C84.8807 41.9248 84.7195 41.4707 84.7195 40.9609C84.7195 40.334 84.951 39.7949 85.4139 39.3438C85.8826 38.8867 86.5477 38.5381 87.409 38.2979C88.2762 38.0576 89.2898 37.9375 90.45 37.9375C91.6102 37.9375 92.6209 38.0576 93.4822 38.2979C94.3436 38.5381 95.0057 38.8867 95.4686 39.3438C95.9373 39.7949 96.1746 40.334 96.1805 40.9609C96.1746 41.4766 96.0076 41.9336 95.6795 42.332C95.3572 42.7305 94.8914 43.0557 94.282 43.3076V45.3203H97.7098V46.8848ZM90.45 47.8516C91.5926 47.8457 92.574 47.9541 93.3943 48.1768C94.2146 48.3936 94.8445 48.7158 95.284 49.1436C95.7234 49.5654 95.9461 50.0781 95.952 50.6816C95.9461 51.291 95.7234 51.8066 95.284 52.2285C94.8445 52.6562 94.2146 52.9785 93.3943 53.1953C92.574 53.418 91.5926 53.5293 90.45 53.5293C89.2957 53.5293 88.3025 53.418 87.4705 53.1953C86.6443 52.9785 86.0115 52.6562 85.5721 52.2285C85.1326 51.8066 84.9129 51.291 84.9129 50.6816C84.9129 50.0781 85.1326 49.5654 85.5721 49.1436C86.0115 48.7158 86.6443 48.3936 87.4705 48.1768C88.3025 47.9541 89.2957 47.8457 90.45 47.8516ZM90.45 49.3281C89.284 49.3281 88.3992 49.4424 87.7957 49.6709C87.1922 49.8994 86.8934 50.2363 86.8992 50.6816C86.8934 51.127 87.1922 51.4668 87.7957 51.7012C88.4051 51.9355 89.2898 52.0527 90.45 52.0527C91.5867 52.0527 92.4598 51.9355 93.0691 51.7012C93.6844 51.4668 93.9949 51.127 94.0008 50.6816C93.9949 50.2363 93.6873 49.8994 93.0779 49.6709C92.4686 49.4424 91.5926 49.3281 90.45 49.3281ZM90.45 39.4492C89.2664 39.4492 88.3523 39.5811 87.7078 39.8447C87.0691 40.1025 86.7527 40.4746 86.7586 40.9609C86.7527 41.4414 87.0691 41.8076 87.7078 42.0596C88.3465 42.3115 89.2605 42.4375 90.45 42.4375C91.6277 42.4375 92.5389 42.3115 93.1834 42.0596C93.8338 41.8076 94.159 41.4414 94.159 40.9609C94.159 40.4746 93.8338 40.1025 93.1834 39.8447C92.5389 39.5811 91.6277 39.4492 90.45 39.4492ZM92.3309 45.3203V43.8086C91.7391 43.8906 91.1121 43.9316 90.45 43.9316C89.7879 43.9316 89.1609 43.8906 88.5691 43.8086V45.3203H92.3309ZM110.867 44.002H113.311V45.6191H110.867V53.5645H108.934V37.6738H110.867V44.002ZM107.703 41.6816H98.3341V40.1172H102.096V37.9023H104.047V40.1172H107.703V41.6816ZM103.08 42.7188C103.836 42.7188 104.516 42.8799 105.119 43.2021C105.729 43.5186 106.206 43.9609 106.552 44.5293C106.898 45.0977 107.07 45.7422 107.07 46.4629C107.07 47.1836 106.898 47.8281 106.552 48.3965C106.206 48.959 105.729 49.3984 105.119 49.7148C104.516 50.0312 103.836 50.1895 103.08 50.1895C102.313 50.1895 101.624 50.0312 101.015 49.7148C100.405 49.3984 99.9279 48.959 99.5822 48.3965C99.2365 47.8281 99.0666 47.1836 99.0724 46.4629C99.0666 45.7422 99.2365 45.0977 99.5822 44.5293C99.9279 43.9609 100.405 43.5186 101.015 43.2021C101.624 42.8799 102.313 42.7188 103.08 42.7188ZM103.08 44.3184C102.664 44.3184 102.292 44.4062 101.964 44.582C101.642 44.7578 101.39 45.0098 101.208 45.3379C101.027 45.6602 100.936 46.0352 100.936 46.4629C100.936 46.8906 101.027 47.2656 101.208 47.5879C101.39 47.9043 101.642 48.1504 101.964 48.3262C102.292 48.4961 102.664 48.5781 103.08 48.5723C103.485 48.5781 103.845 48.4961 104.161 48.3262C104.484 48.1504 104.736 47.9043 104.917 47.5879C105.105 47.2656 105.201 46.8906 105.207 46.4629C105.201 46.0352 105.105 45.6602 104.917 45.3379C104.736 45.0156 104.484 44.7666 104.161 44.5908C103.845 44.4092 103.485 44.3184 103.08 44.3184ZM119.63 41.4883C119.625 42.4668 119.786 43.4189 120.114 44.3447C120.442 45.2705 120.917 46.0938 121.538 46.8145C122.159 47.5352 122.888 48.0742 123.726 48.4316L122.566 49.9961C121.669 49.5801 120.887 48.9736 120.219 48.1768C119.557 47.3799 119.039 46.4512 118.664 45.3906C118.289 46.5391 117.758 47.5469 117.073 48.4141C116.393 49.2754 115.582 49.9258 114.638 50.3652L113.443 48.7305C114.304 48.3613 115.051 47.8047 115.684 47.0605C116.323 46.3105 116.809 45.4521 117.143 44.4854C117.477 43.5127 117.644 42.5137 117.644 41.4883V38.957H119.63V41.4883ZM126.837 53.582H124.869V37.6738H126.837V53.582ZM136.972 40.2754H140.171V37.6914H142.122V49.2578H140.171V45.25H136.972V46.6211H129.501V39.0098H136.972V40.2754ZM131.452 45.0918H135.038V40.5566H131.452V45.0918ZM142.474 53.248H131.645V48.1855H133.632V51.666H142.474V53.248ZM140.171 43.6855V41.875H136.972V43.6855H140.171ZM149.883 41.4883C149.883 42.4844 150.035 43.4482 150.34 44.3799C150.651 45.3057 151.102 46.126 151.694 46.8408C152.291 47.5557 153 48.0918 153.821 48.4492L152.643 50.0137C151.764 49.5859 151.005 48.9707 150.366 48.168C149.734 47.3652 149.244 46.4336 148.899 45.373C148.541 46.498 148.037 47.4883 147.387 48.3438C146.742 49.1992 145.975 49.8555 145.084 50.3125L143.854 48.7305C144.692 48.3379 145.412 47.7637 146.016 47.0078C146.625 46.252 147.088 45.3936 147.405 44.4326C147.727 43.4717 147.891 42.4902 147.897 41.4883V38.957H149.883V41.4883ZM157.336 53.582H155.403V44.3887H152.063V42.8066H155.403V37.6738H157.336V53.582ZM31.4473 68.3574H20.1973V61.0625H22.166V66.7578H31.4473V68.3574ZM33.0469 73.5781H18.5273V71.9258H33.0469V73.5781ZM46.9603 71.2051H44.9564V59.709H46.9603V71.2051ZM47.3646 75.248H36.2904V70.3086H38.2416V73.666H47.3646V75.248ZM38.6283 60.9746C38.6224 62.1641 38.5111 63.2246 38.2943 64.1562C38.0775 65.082 37.7142 65.9404 37.2045 66.7314C36.6947 67.5225 35.9974 68.2578 35.1127 68.9375L33.8119 67.7422C34.7611 67.0156 35.4613 66.251 35.9125 65.4482C36.3636 64.6455 36.642 63.6875 36.7474 62.5742H34.3392V60.9746H38.6283ZM43.181 60.9746C43.1752 62.252 43.0785 63.3857 42.891 64.376C42.7035 65.3662 42.3607 66.3037 41.8627 67.1885C41.3705 68.0674 40.6791 68.8906 39.7884 69.6582L38.4525 68.4629C39.1088 67.9121 39.639 67.3408 40.0433 66.749C40.4476 66.1514 40.7494 65.5156 40.9486 64.8418C41.1537 64.168 41.2855 63.4121 41.3441 62.5742H39.2084V60.9746H43.181ZM66.1387 68.9023H64.1876V65.0527H61.4454V63.4531H64.1876V59.6738H66.1387V68.9023ZM66.1387 75.3711H55.5743V69.5879H66.1387V75.3711ZM57.5255 73.7891H64.2227V71.1348H57.5255V73.7891ZM58.668 62.293C58.668 62.9434 58.8116 63.5762 59.0987 64.1914C59.3858 64.8066 59.8106 65.3604 60.3731 65.8525C60.9356 66.3447 61.6153 66.7285 62.4122 67.0039L61.4278 68.5508C60.5606 68.252 59.8106 67.8184 59.1778 67.25C58.5509 66.6816 58.0587 66.0137 57.7012 65.2461C57.338 66.0957 56.8253 66.834 56.1632 67.4609C55.5011 68.082 54.713 68.5449 53.7989 68.8496L52.797 67.3203C53.6173 67.0449 54.3175 66.6465 54.8975 66.125C55.4835 65.6035 55.9259 65.0117 56.2247 64.3496C56.5294 63.6816 56.6817 62.9902 56.6817 62.2754V62.1523H53.377V60.5703H61.9552V62.1523H58.668V62.293ZM75.2534 59.9199C76.4604 59.9199 77.4887 60.0254 78.3383 60.2363C79.1938 60.4473 79.8471 60.7578 80.2983 61.168C80.7495 61.5723 80.978 62.0645 80.9838 62.6445C80.978 63.5234 80.477 64.1973 79.4809 64.666C78.4848 65.1348 77.0756 65.375 75.2534 65.3867C73.4252 65.375 72.0131 65.1348 71.017 64.666C70.0209 64.1973 69.5229 63.5234 69.5229 62.6445C69.5229 62.0645 69.7485 61.5723 70.1996 61.168C70.6508 60.7578 71.3041 60.4473 72.1596 60.2363C73.0151 60.0254 74.0463 59.9199 75.2534 59.9199ZM75.2534 61.3613C74.0463 61.3613 73.1293 61.4727 72.5024 61.6953C71.8754 61.9121 71.5678 62.2285 71.5795 62.6445C71.5737 63.0781 71.8784 63.4004 72.4936 63.6113C73.1088 63.8223 74.0288 63.9277 75.2534 63.9277C76.4955 63.9277 77.4243 63.8223 78.0395 63.6113C78.6547 63.4004 78.9623 63.0781 78.9623 62.6445C78.9623 62.2285 78.6489 61.9121 78.0219 61.6953C77.395 61.4727 76.4721 61.3613 75.2534 61.3613ZM82.5131 67.7949H68.0288V66.2305H82.5131V67.7949ZM80.7026 72.752H71.6674V73.9297H81.142V75.4238H69.7514V71.3633H78.7866V70.3086H69.7338V68.8672H80.7026V72.752ZM99.6701 62.873H101.885V64.4902H99.6701V67.6543H97.7189V59.6738H99.6701V62.873ZM99.6701 72.5059H91.2326V73.8242H100.162V75.3711H89.299V71.082H97.7189V69.8516H89.2814V68.3398H99.6701V72.5059ZM91.5314 60.2012C92.3341 60.2012 93.0548 60.3535 93.6935 60.6582C94.3322 60.957 94.8332 61.3789 95.1964 61.9238C95.5597 62.4629 95.7443 63.0781 95.7502 63.7695C95.7443 64.4492 95.5597 65.0615 95.1964 65.6064C94.8332 66.1455 94.3293 66.5674 93.6847 66.8721C93.0461 67.1709 92.3283 67.3203 91.5314 67.3203C90.7287 67.3203 90.005 67.168 89.3605 66.8633C88.7218 66.5586 88.2179 66.1367 87.8488 65.5977C87.4855 65.0586 87.3068 64.4492 87.3127 63.7695C87.3068 63.0781 87.4855 62.4629 87.8488 61.9238C88.2121 61.3789 88.716 60.957 89.3605 60.6582C90.005 60.3535 90.7287 60.2012 91.5314 60.2012ZM91.5314 61.7832C91.0861 61.7832 90.6877 61.8652 90.3361 62.0293C89.9845 62.1934 89.7091 62.4248 89.5099 62.7236C89.3166 63.0225 89.2228 63.3711 89.2287 63.7695C89.2228 64.1621 89.3166 64.5107 89.5099 64.8154C89.7091 65.1201 89.9845 65.3574 90.3361 65.5273C90.6877 65.6914 91.0861 65.7734 91.5314 65.7734C91.9709 65.7734 92.3664 65.6914 92.7179 65.5273C93.0753 65.3574 93.3537 65.1201 93.5529 64.8154C93.7521 64.5107 93.8517 64.1621 93.8517 63.7695C93.8517 63.3711 93.7521 63.0225 93.5529 62.7236C93.3537 62.4248 93.0783 62.1934 92.7267 62.0293C92.3752 61.8652 91.9767 61.7832 91.5314 61.7832ZM115.64 75.582H113.689V69.0605H110.789V67.4609H113.689V64.7363H110.841V63.1367H113.689V59.6738H115.64V75.582ZM109.945 66.9863H104.847V70.3613C105.99 70.3496 107.033 70.3145 107.976 70.2559C108.925 70.1914 109.904 70.0859 110.912 69.9395L111.07 71.5391C109.945 71.7148 108.861 71.832 107.818 71.8906C106.775 71.9492 105.55 71.9785 104.144 71.9785H102.914V65.457H108.029V62.6094H102.861V61.0449H109.945V66.9863ZM132.015 70.1152H125.704V75.5469H123.77V70.1152H117.53V68.5332H132.015V70.1152ZM130.679 62.1172H125.906C125.947 62.6973 126.196 63.2568 126.653 63.7959C127.11 64.3291 127.737 64.7861 128.534 65.167C129.331 65.5479 130.239 65.8027 131.259 65.9316L130.556 67.4609C129.208 67.2734 128.027 66.8867 127.014 66.3008C126.006 65.7148 125.259 64.9883 124.772 64.1211C124.286 64.9824 123.539 65.709 122.531 66.3008C121.523 66.8867 120.354 67.2734 119.024 67.4609L118.286 65.9316C119.3 65.8027 120.202 65.5479 120.993 65.167C121.79 64.7861 122.417 64.3291 122.874 63.7959C123.337 63.2568 123.592 62.6973 123.639 62.1172H118.866V60.5703H130.679V62.1172ZM137.684 63.8398C137.684 64.7305 137.789 65.5947 138 66.4326C138.217 67.2705 138.554 68.0381 139.011 68.7354C139.468 69.4326 140.039 69.998 140.725 70.4316L139.653 71.9258C138.961 71.5098 138.375 70.9531 137.895 70.2559C137.414 69.5527 137.036 68.7471 136.761 67.8389C136.462 68.8291 136.055 69.708 135.539 70.4756C135.024 71.2432 134.403 71.8496 133.676 72.2949L132.463 70.8359C133.207 70.3848 133.828 69.793 134.326 69.0605C134.824 68.3281 135.194 67.5225 135.434 66.6436C135.68 65.7646 135.803 64.8594 135.803 63.9277V61.0801H137.684V63.8398ZM146.438 75.5645H144.557V59.6738H146.438V75.5645ZM143.133 74.791H141.287V66.7578H139.02V65.1406H141.287V59.9551H143.133V74.791ZM162.443 73.6309H147.923V72.0312H151.281V68.0146C150.636 67.6396 150.135 67.1738 149.778 66.6172C149.426 66.0605 149.254 65.4336 149.259 64.7363C149.254 63.9102 149.503 63.1777 150.006 62.5391C150.51 61.9004 151.211 61.4082 152.107 61.0625C153.004 60.7109 154.017 60.5352 155.148 60.5352C156.285 60.5352 157.301 60.7109 158.198 61.0625C159.1 61.4082 159.803 61.9004 160.307 62.5391C160.817 63.1719 161.072 63.9043 161.072 64.7363C161.072 65.416 160.899 66.0342 160.553 66.5908C160.213 67.1416 159.73 67.6016 159.103 67.9707V72.0312H162.443V73.6309ZM155.148 62.082C154.357 62.082 153.66 62.1904 153.056 62.4072C152.459 62.6182 151.993 62.9229 151.659 63.3213C151.331 63.7197 151.17 64.1914 151.175 64.7363C151.17 65.2754 151.331 65.7441 151.659 66.1426C151.993 66.541 152.462 66.8486 153.065 67.0654C153.669 67.2822 154.363 67.3906 155.148 67.3906C155.933 67.3906 156.628 67.2822 157.231 67.0654C157.84 66.8486 158.312 66.541 158.646 66.1426C158.986 65.7441 159.156 65.2754 159.156 64.7363C159.156 64.1973 158.986 63.7285 158.646 63.3301C158.312 62.9258 157.843 62.6182 157.24 62.4072C156.636 62.1904 155.939 62.082 155.148 62.082ZM157.117 72.0312V68.7178C156.496 68.8525 155.839 68.9199 155.148 68.9199C154.486 68.9199 153.841 68.8555 153.214 68.7266V72.0312H157.117ZM166.196 70.2559H164.21L163.999 61.2734H166.39L166.196 70.2559ZM165.212 74.1406C164.966 74.1406 164.737 74.0791 164.526 73.9561C164.315 73.833 164.148 73.666 164.025 73.4551C163.902 73.2441 163.841 73.0156 163.841 72.7695C163.841 72.5293 163.902 72.3066 164.025 72.1016C164.148 71.8906 164.315 71.7236 164.526 71.6006C164.737 71.4775 164.966 71.416 165.212 71.416C165.446 71.416 165.666 71.4775 165.871 71.6006C166.082 71.7236 166.249 71.8906 166.372 72.1016C166.501 72.3066 166.565 72.5293 166.565 72.7695C166.565 73.0156 166.501 73.2441 166.372 73.4551C166.249 73.666 166.082 73.833 165.871 73.9561C165.666 74.0791 165.446 74.1406 165.212 74.1406Z" fill="#333333"/>
<path d="M21.2344 93.2812C22.1895 93.2812 22.9805 93.832 23.4492 94.7812H26.0391V92.4961H27.1406V103.02H26.0391V98.9883H23.5195C23.0684 100.043 22.2422 100.652 21.2344 100.652C19.6641 100.652 18.5625 99.2227 18.5742 96.9609C18.5625 94.7109 19.6641 93.2812 21.2344 93.2812ZM21.2344 94.2773C20.2852 94.2773 19.6289 95.3086 19.6289 96.9609C19.6289 98.625 20.2852 99.6562 21.2344 99.6562C22.1836 99.6562 22.8398 98.625 22.8398 96.9609C22.8398 95.3086 22.1836 94.2773 21.2344 94.2773ZM23.7656 95.6953C23.8418 96.082 23.8945 96.5039 23.8945 96.9609C23.8945 97.3594 23.8594 97.7285 23.7891 98.0742H26.0391V95.6953H23.7656ZM37.26 92.4961V103.02H36.1584V97.3711H34.2366V96.4453H36.1584V92.4961H37.26ZM33.6155 93.4453V97.1953H30.0178V99.5859C31.6936 99.5801 32.9827 99.5215 34.4475 99.2578L34.5413 100.172C32.9709 100.453 31.5881 100.512 29.7366 100.523H28.9045V96.293H32.5373V94.3477H28.8811V93.4453H33.6155ZM48.2466 97.9922V98.8828H44.0747V100.816H42.9731V98.8828H38.6372V97.9922H48.2466ZM47.1802 101.871V102.773H39.8325V99.9023H40.9341V101.871H47.1802ZM41.0044 92.8242V94.1016H45.8677V92.8242H46.9809V97.0664H39.9028V92.8242H41.0044ZM41.0044 96.1758H45.8677V94.9336H41.0044V96.1758ZM52.2019 93.2461C53.8659 93.2344 55.0495 94.2656 55.0613 95.7422C55.0495 97.2188 53.8659 98.25 52.2019 98.25C50.5495 98.25 49.3308 97.2188 49.3425 95.7422C49.3308 94.2656 50.5495 93.2344 52.2019 93.2461ZM52.2019 94.207C51.1823 94.207 50.4323 94.8164 50.4441 95.7422C50.4323 96.668 51.1823 97.2773 52.2019 97.2773C53.2214 97.2773 53.9714 96.668 53.9714 95.7422C53.9714 94.8164 53.2214 94.207 52.2019 94.207ZM57.4636 92.4961V103.02H56.3503V92.4961H57.4636ZM48.8386 99.832C50.7488 99.832 53.3972 99.8086 55.6941 99.4805L55.7761 100.289C53.3972 100.746 50.8542 100.758 48.9792 100.758L48.8386 99.832ZM65.0227 93.2461C66.6867 93.2344 67.8703 94.2656 67.882 95.7422C67.8703 97.2188 66.6867 98.25 65.0227 98.25C63.3703 98.25 62.1516 97.2188 62.1633 95.7422C62.1516 94.2656 63.3703 93.2344 65.0227 93.2461ZM65.0227 94.207C64.0031 94.207 63.2531 94.8164 63.2648 95.7422C63.2531 96.668 64.0031 97.2773 65.0227 97.2773C66.0422 97.2773 66.7922 96.668 66.7922 95.7422C66.7922 94.8164 66.0422 94.207 65.0227 94.207ZM70.2844 92.4961V103.02H69.1711V92.4961H70.2844ZM61.6594 99.832C63.5695 99.832 66.218 99.8086 68.5148 99.4805L68.5969 100.289C66.218 100.746 63.675 100.758 61.8 100.758L61.6594 99.832ZM80.4858 92.5078V100.301H79.3725V97.8867H76.6889V96.9727H79.3725V95.5312H76.8413C76.0854 97.166 74.5092 98.3965 72.3764 99.0703L71.8959 98.1914C74.2866 97.418 75.8686 95.9941 76.103 94.207H72.435V93.3164H77.31C77.31 93.7734 77.2514 94.2129 77.1459 94.6289H79.3725V92.5078H80.4858ZM80.7553 101.871V102.773H73.7241V99.5273H74.8491V101.871H80.7553ZM91.4372 97.9805V98.8711H81.863V97.9805H91.4372ZM90.3591 101.871V102.773H83.07V99.7266H84.195V101.871H90.3591ZM86.6442 92.8477C88.9177 92.8359 90.3942 93.6328 90.3942 94.9453C90.3942 96.2695 88.9177 97.0664 86.6442 97.0781C84.3591 97.0664 82.8942 96.2695 82.8942 94.9453C82.8942 93.6328 84.3591 92.8359 86.6442 92.8477ZM86.6442 93.7383C85.0387 93.7383 84.0309 94.1953 84.0427 94.9453C84.0309 95.7188 85.0387 96.1641 86.6442 96.1641C88.2497 96.1641 89.2458 95.7188 89.2458 94.9453C89.2458 94.1953 88.2497 93.7383 86.6442 93.7383ZM103.391 92.5078V100.137H102.277V92.5078H103.391ZM103.707 101.871V102.773H96.5236V99.3633H97.6486V101.871H103.707ZM97.6955 93.2109C99.2775 93.2109 100.485 94.2891 100.485 95.8125C100.485 97.3594 99.2775 98.4258 97.6955 98.4258C96.1134 98.4258 94.8947 97.3594 94.8947 95.8125C94.8947 94.2891 96.1134 93.2109 97.6955 93.2109ZM97.6955 94.1836C96.7111 94.1836 95.9845 94.8516 95.9845 95.8125C95.9845 96.7969 96.7111 97.4531 97.6955 97.4531C98.6564 97.4531 99.3947 96.7969 99.3947 95.8125C99.3947 94.8516 98.6564 94.1836 97.6955 94.1836ZM113.85 93.6562V94.5703H105.307V93.6562H109.045V92.4492H110.147V93.6562H113.85ZM114.424 99.293V100.207H110.147V103.008H109.045V100.207H104.815V99.293H114.424ZM109.596 95.1094C111.776 95.1094 113.088 95.7305 113.088 96.8789C113.088 98.0039 111.776 98.625 109.596 98.6367C107.405 98.625 106.092 98.0039 106.104 96.8789C106.092 95.7305 107.405 95.1094 109.596 95.1094ZM109.596 95.9414C108.084 95.9414 107.252 96.2695 107.252 96.8789C107.252 97.4648 108.084 97.793 109.596 97.793C111.096 97.793 111.928 97.4648 111.94 96.8789C111.928 96.2695 111.096 95.9414 109.596 95.9414ZM123.981 92.4961V102.996H122.915V92.4961H123.981ZM121.848 92.6953V102.48H120.782V97.418H119.598C119.505 99.4688 118.626 100.746 117.325 100.734C115.954 100.746 115.063 99.3047 115.063 97.0312C115.063 94.7578 115.954 93.3281 117.325 93.3398C118.602 93.3281 119.469 94.541 119.598 96.5156H120.782V92.6953H121.848ZM117.325 94.3828C116.563 94.3828 116.094 95.3555 116.094 97.0312C116.094 98.707 116.563 99.6797 117.325 99.6797C118.098 99.6797 118.579 98.707 118.579 97.0312C118.579 95.3555 118.098 94.3828 117.325 94.3828ZM134.1 92.4961V102.996H133.046V92.4961H134.1ZM131.886 92.7656V102.48H130.831V97.6055H128.78C128.153 98.8242 127.157 99.8906 125.675 100.758L125.042 99.9609C127.268 98.6367 128.341 96.873 128.534 94.7109H125.534V93.7969H129.636C129.63 94.8223 129.489 95.8008 129.167 96.7148H130.831V92.7656H131.886ZM146.288 93.0234V93.9492C146.288 94.9629 146.288 96.0703 145.995 97.6172H147.495V98.5195H137.898V97.6172H144.87C144.999 97.0078 145.076 96.4629 145.117 95.9531L138.976 96.2344L138.835 95.3086L145.175 95.1328C145.187 94.7109 145.187 94.3184 145.187 93.9492V93.9375H139.105V93.0234H146.288ZM146.499 101.871V102.773H139.081V99.4805H140.195V101.871H146.499ZM159.226 97.3359V98.2266H156.051V100.793H160.328V101.707H150.719V100.793H154.949V98.2266H151.914V93.3047H159.133V94.207H153.027V97.3359H159.226ZM165.631 92.6719C167.94 92.6719 169.381 93.4102 169.381 94.6758C169.381 95.9062 167.94 96.6445 165.631 96.6445C163.334 96.6445 161.881 95.9062 161.881 94.6758C161.881 93.4102 163.334 92.6719 165.631 92.6719ZM165.631 93.5391C164.014 93.5391 163.018 93.9492 163.029 94.6758C163.018 95.3789 164.014 95.7773 165.631 95.7773C167.236 95.7773 168.232 95.3789 168.232 94.6758C168.232 93.9492 167.236 93.5391 165.631 93.5391ZM169.252 99.3633V102.867H161.998V99.3633H165.08V98.2617H160.85V97.3594H170.424V98.2617H166.182V99.3633H169.252ZM163.1 100.254V101.965H168.174V100.254H163.1ZM179.676 92.4961V103.02H178.563V92.4961H179.676ZM174.063 93.2812C175.621 93.2812 176.77 94.7109 176.77 96.9609C176.77 99.2227 175.621 100.652 174.063 100.652C172.481 100.652 171.344 99.2227 171.344 96.9609C171.344 94.7109 172.481 93.2812 174.063 93.2812ZM174.063 94.2773C173.09 94.2773 172.422 95.3086 172.422 96.9609C172.422 98.625 173.09 99.6562 174.063 99.6562C175.024 99.6562 175.692 98.625 175.692 96.9609C175.692 95.3086 175.024 94.2773 174.063 94.2773ZM192.532 92.5078V98.5547H191.407V92.5078H192.532ZM183.825 97.4414C184.692 97.4414 185.706 97.4355 186.755 97.4062V96.375H184.762V93H189.778V93.9141H185.876V95.4961H189.872V96.375H187.856V97.3594C188.794 97.3125 189.731 97.2422 190.61 97.125L190.669 97.9102C188.395 98.2969 185.876 98.332 183.989 98.3438L183.825 97.4414ZM186.637 99.0117V100.02H191.43V99.0117H192.532V102.867H185.524V99.0117H186.637ZM186.637 101.965H191.43V100.875H186.637V101.965ZM202.651 92.4961V102.996H201.538V92.4961H202.651ZM195.679 93.5156V99.3633C197.208 99.3516 198.819 99.2285 200.507 98.8828L200.659 99.8203C198.796 100.195 197.108 100.324 195.456 100.324H194.577V93.5156H195.679ZM212.243 92.4961V96.5625H213.931V97.4766H212.243V103.02H211.13V92.4961H212.243ZM209.419 93.5039V94.4062H205.622V99.4805C207.386 99.4746 208.71 99.3984 210.204 99.1289L210.345 100.066C208.704 100.359 207.31 100.418 205.353 100.406H204.509V93.5039H209.419ZM215.39 102.082C214.933 102.082 214.546 101.707 214.558 101.25C214.546 100.793 214.933 100.418 215.39 100.418C215.835 100.418 216.222 100.793 216.222 101.25C216.222 101.707 215.835 102.082 215.39 102.082Z" fill="#818181"/>
<path fill-rule="evenodd" clip-rule="evenodd" d="M245.058 59.6316L273.758 35.1932C275.627 33.6023 278.373 33.6023 280.242 35.1932L308.942 59.6316C309.353 59.9824 309.658 60.4332 309.832 60.9329H310V61.9231V100.933C310 103.142 308.209 104.933 306 104.933H248C245.791 104.933 244 103.142 244 100.933V61.9231V60.9329H244.168C244.342 60.4332 244.647 59.9824 245.058 59.6316Z" fill="#FF9393"/>
<rect x="251" y="48" width="52" height="43" rx="6" fill="white"/>
<rect x="257" y="56" width="27" height="4" rx="2" fill="#E7E7E7"/>
<rect x="257" y="62" width="35" height="4" rx="2" fill="#E7E7E7"/>
<path d="M309.999 101.93L309.999 61C290.322 74.8329 250.353 101.899 247.951 103.499C245.55 105.099 248.452 104.999 248.452 104.999C248.452 104.999 297.877 104.997 303.479 104.999C309.983 105 310.015 102.897 309.999 101.93Z" fill="#FFA7A7"/>
<path d="M244.001 101.93L244.001 61C263.053 74.8329 301.754 101.899 304.079 103.499C306.404 105.099 303.594 104.999 303.594 104.999C303.594 104.999 255.739 104.997 250.314 104.999C244.017 105 243.986 102.897 244.001 101.93Z" fill="#FFCDCD"/>
</svg>
