<svg viewBox="0 0 22 22" xmlns="http://www.w3.org/2000/svg">
<path fill-rule="evenodd" clip-rule="evenodd" d="M3.66667 4.51218C3.66667 3.80172 3.9564 3.12035 4.47213 2.61798C4.98785 2.1156 5.68733 1.83337 6.41667 1.83337H15.5833C16.3127 1.83337 17.0122 2.1156 17.5279 2.61798C18.0436 3.12035 18.3333 3.80172 18.3333 4.51218V18.8242C18.3333 19.9135 17.0683 20.5475 16.159 19.9144L11 16.3248L5.84101 19.9144C4.93076 20.5484 3.66667 19.9144 3.66667 18.8251V4.51218ZM6.41667 3.61925C6.17356 3.61925 5.9404 3.71332 5.76849 3.88078C5.59658 4.04824 5.50001 4.27536 5.50001 4.51218V17.9571L10.2007 14.6863C10.4339 14.524 10.7134 14.4367 11 14.4367C11.2866 14.4367 11.5661 14.524 11.7993 14.6863L16.5 17.9571V4.51218C16.5 4.27536 16.4034 4.04824 16.2315 3.88078C16.0596 3.71332 15.8265 3.61925 15.5833 3.61925H6.41667Z" fill="#BDBDBD"/>
</svg>
