<svg width="24" height="24" viewBox="0 0 24 24" xmlns="http://www.w3.org/2000/svg">
<rect width="24" height="24" fill="white"/>
<path d="M11.3861 3.47751L3.38606 9.69973C3.14247 9.88919 3 10.1805 3 10.4891V20C3 20.5523 3.44772 21 4 21H9C9.55228 21 10 20.5523 10 20V16.5C10 15.9477 10.4477 15.5 11 15.5H12H13C13.5523 15.5 14 15.9477 14 16.5V20C14 20.5523 14.4477 21 15 21H20C20.5523 21 21 20.5523 21 20V10.4891C21 10.1805 20.8575 9.88919 20.6139 9.69973L12.6139 3.47751C12.2528 3.19665 11.7472 3.19665 11.3861 3.47751Z" fill="black"/>
</svg>
