<svg width="160" height="64" viewBox="0 0 160 64" fill="none" xmlns="http://www.w3.org/2000/svg">
<rect y="2" width="17.4815" height="59.9365" rx="2.49735" fill="#5097E0"/>
<path fill-rule="evenodd" clip-rule="evenodd" d="M119.873 18C118.494 18 117.376 19.1181 117.376 20.4974V47.9683C117.376 56.2438 126.88 62.9524 138.603 62.9524C150.319 62.9524 159.817 56.2532 159.831 47.9857L159.831 47.9683V20.4974C159.831 19.1181 158.713 18 157.333 18H147.344C145.965 18 144.847 19.1181 144.847 20.4974V33.6427C144.847 33.6427 144.847 33.6427 144.847 33.6427V41.7249C144.847 45.173 142.051 47.9683 138.603 47.9683C135.155 47.9683 132.36 45.173 132.36 41.7249L132.36 33.6427V20.4974C132.36 19.1181 131.242 18 129.863 18H119.873Z" fill="#5097E0"/>
<path fill-rule="evenodd" clip-rule="evenodd" d="M24.9734 61.9365C23.5942 61.9365 22.4761 60.8184 22.4761 59.4392V31.9683C22.4761 23.6927 31.98 16.9841 43.7036 16.9841C55.419 16.9841 64.9177 23.6833 64.9311 31.9508L64.9311 31.9683V59.4392C64.9311 60.8184 63.813 61.9365 62.4338 61.9365H52.4444C51.0651 61.9365 49.947 60.8184 49.947 59.4392V46.2938C49.947 46.2938 49.947 46.2938 49.9469 46.2938V38.2116C49.9469 34.7635 47.1517 31.9683 43.7035 31.9683C40.2554 31.9683 37.4602 34.7635 37.4602 38.2116V49.4497H37.4602V59.4392C37.4602 60.8184 36.3421 61.9365 34.9628 61.9365H24.9734Z" fill="#5097E0"/>
<path fill-rule="evenodd" clip-rule="evenodd" d="M72.4234 2C71.0441 2 69.926 3.1181 69.926 4.49736V31.9683V59.4392C69.926 59.6116 69.9435 59.7799 69.9768 59.9425C70.2096 61.0805 71.2165 61.9365 72.4234 61.9365H82.4128C83.792 61.9365 84.9102 60.8184 84.9102 59.4392V46.2938L84.9102 38.2116C84.9102 34.7635 87.7054 31.9683 91.1535 31.9683C94.6017 31.9683 97.3969 34.7635 97.3969 38.2116V46.2938L97.397 46.2938V59.4392C97.397 60.8184 98.5151 61.9365 99.8943 61.9365H109.884C111.263 61.9365 112.381 60.8184 112.381 59.4392V31.9683L112.381 31.9508C112.368 23.6833 102.869 16.9841 91.1535 16.9841C88.9807 16.9841 86.8841 17.2146 84.9102 17.6427V4.49735C84.9102 3.1181 83.792 2 82.4128 2H72.4234Z" fill="#5097E0"/>
</svg>
